<?xml version="1.0" encoding="utf-8" standalone="no"?>
<!DOCTYPE svg PUBLIC "-//W3C//DTD SVG 1.1//EN"
  "http://www.w3.org/Graphics/SVG/1.1/DTD/svg11.dtd">
<svg xmlns:xlink="http://www.w3.org/1999/xlink" width="504pt" height="288pt" viewBox="0 0 504 288" xmlns="http://www.w3.org/2000/svg" version="1.1">
 <metadata>
  <rdf:RDF xmlns:dc="http://purl.org/dc/elements/1.1/" xmlns:cc="http://creativecommons.org/ns#" xmlns:rdf="http://www.w3.org/1999/02/22-rdf-syntax-ns#">
   <cc:Work>
    <dc:type rdf:resource="http://purl.org/dc/dcmitype/StillImage"/>
    <dc:date>2024-11-05T16:02:28.935644</dc:date>
    <dc:format>image/svg+xml</dc:format>
    <dc:creator>
     <cc:Agent>
      <dc:title>Matplotlib v3.9.1, https://matplotlib.org/</dc:title>
     </cc:Agent>
    </dc:creator>
   </cc:Work>
  </rdf:RDF>
 </metadata>
 <defs>
  <style type="text/css">*{stroke-linejoin: round; stroke-linecap: butt}</style>
 </defs>
 <g id="figure_1">
  <g id="patch_1">
   <path d="M 0 288 
L 504 288 
L 504 0 
L 0 0 
z
" style="fill: #ffffff"/>
  </g>
  <g id="axes_1">
   <g id="patch_2">
    <path d="M 46.7 248.2 
L 493.2 248.2 
L 493.2 10.8 
L 46.7 10.8 
z
" style="fill: #ffffff"/>
   </g>
   <g id="matplotlib.axis_1">
    <g id="xtick_1">
     <g id="line2d_1">
      <path d="M 66.180376 248.2 
L 66.180376 10.8 
" clip-path="url(#pfa7b6bf39a)" style="fill: none; stroke: #b0b0b0; stroke-width: 0.8; stroke-linecap: square"/>
     </g>
     <g id="line2d_2">
      <defs>
       <path id="mdc7ecd5db2" d="M 0 0 
L 0 3.5 
" style="stroke: #000000; stroke-width: 0.8"/>
      </defs>
      <g>
       <use xlink:href="#mdc7ecd5db2" x="66.180376" y="248.2" style="stroke: #000000; stroke-width: 0.8"/>
      </g>
     </g>
     <g id="text_1">
      <!-- 0 -->
      <g transform="translate(62.999126 262.798438) scale(0.1 -0.1)">
       <defs>
        <path id="DejaVuSans-30" d="M 2034 4250 
Q 1547 4250 1301 3770 
Q 1056 3291 1056 2328 
Q 1056 1369 1301 889 
Q 1547 409 2034 409 
Q 2525 409 2770 889 
Q 3016 1369 3016 2328 
Q 3016 3291 2770 3770 
Q 2525 4250 2034 4250 
z
M 2034 4750 
Q 2819 4750 3233 4129 
Q 3647 3509 3647 2328 
Q 3647 1150 3233 529 
Q 2819 -91 2034 -91 
Q 1250 -91 836 529 
Q 422 1150 422 2328 
Q 422 3509 836 4129 
Q 1250 4750 2034 4750 
z
" transform="scale(0.015625)"/>
       </defs>
       <use xlink:href="#DejaVuSans-30"/>
      </g>
     </g>
    </g>
    <g id="xtick_2">
     <g id="line2d_3">
      <path d="M 147.688226 248.2 
L 147.688226 10.8 
" clip-path="url(#pfa7b6bf39a)" style="fill: none; stroke: #b0b0b0; stroke-width: 0.8; stroke-linecap: square"/>
     </g>
     <g id="line2d_4">
      <g>
       <use xlink:href="#mdc7ecd5db2" x="147.688226" y="248.2" style="stroke: #000000; stroke-width: 0.8"/>
      </g>
     </g>
     <g id="text_2">
      <!-- 100 -->
      <g transform="translate(138.144476 262.798438) scale(0.1 -0.1)">
       <defs>
        <path id="DejaVuSans-31" d="M 794 531 
L 1825 531 
L 1825 4091 
L 703 3866 
L 703 4441 
L 1819 4666 
L 2450 4666 
L 2450 531 
L 3481 531 
L 3481 0 
L 794 0 
L 794 531 
z
" transform="scale(0.015625)"/>
       </defs>
       <use xlink:href="#DejaVuSans-31"/>
       <use xlink:href="#DejaVuSans-30" x="63.623047"/>
       <use xlink:href="#DejaVuSans-30" x="127.246094"/>
      </g>
     </g>
    </g>
    <g id="xtick_3">
     <g id="line2d_5">
      <path d="M 229.196075 248.2 
L 229.196075 10.8 
" clip-path="url(#pfa7b6bf39a)" style="fill: none; stroke: #b0b0b0; stroke-width: 0.8; stroke-linecap: square"/>
     </g>
     <g id="line2d_6">
      <g>
       <use xlink:href="#mdc7ecd5db2" x="229.196075" y="248.2" style="stroke: #000000; stroke-width: 0.8"/>
      </g>
     </g>
     <g id="text_3">
      <!-- 200 -->
      <g transform="translate(219.652325 262.798438) scale(0.1 -0.1)">
       <defs>
        <path id="DejaVuSans-32" d="M 1228 531 
L 3431 531 
L 3431 0 
L 469 0 
L 469 531 
Q 828 903 1448 1529 
Q 2069 2156 2228 2338 
Q 2531 2678 2651 2914 
Q 2772 3150 2772 3378 
Q 2772 3750 2511 3984 
Q 2250 4219 1831 4219 
Q 1534 4219 1204 4116 
Q 875 4013 500 3803 
L 500 4441 
Q 881 4594 1212 4672 
Q 1544 4750 1819 4750 
Q 2544 4750 2975 4387 
Q 3406 4025 3406 3419 
Q 3406 3131 3298 2873 
Q 3191 2616 2906 2266 
Q 2828 2175 2409 1742 
Q 1991 1309 1228 531 
z
" transform="scale(0.015625)"/>
       </defs>
       <use xlink:href="#DejaVuSans-32"/>
       <use xlink:href="#DejaVuSans-30" x="63.623047"/>
       <use xlink:href="#DejaVuSans-30" x="127.246094"/>
      </g>
     </g>
    </g>
    <g id="xtick_4">
     <g id="line2d_7">
      <path d="M 310.703925 248.2 
L 310.703925 10.8 
" clip-path="url(#pfa7b6bf39a)" style="fill: none; stroke: #b0b0b0; stroke-width: 0.8; stroke-linecap: square"/>
     </g>
     <g id="line2d_8">
      <g>
       <use xlink:href="#mdc7ecd5db2" x="310.703925" y="248.2" style="stroke: #000000; stroke-width: 0.8"/>
      </g>
     </g>
     <g id="text_4">
      <!-- 300 -->
      <g transform="translate(301.160175 262.798438) scale(0.1 -0.1)">
       <defs>
        <path id="DejaVuSans-33" d="M 2597 2516 
Q 3050 2419 3304 2112 
Q 3559 1806 3559 1356 
Q 3559 666 3084 287 
Q 2609 -91 1734 -91 
Q 1441 -91 1130 -33 
Q 819 25 488 141 
L 488 750 
Q 750 597 1062 519 
Q 1375 441 1716 441 
Q 2309 441 2620 675 
Q 2931 909 2931 1356 
Q 2931 1769 2642 2001 
Q 2353 2234 1838 2234 
L 1294 2234 
L 1294 2753 
L 1863 2753 
Q 2328 2753 2575 2939 
Q 2822 3125 2822 3475 
Q 2822 3834 2567 4026 
Q 2313 4219 1838 4219 
Q 1578 4219 1281 4162 
Q 984 4106 628 3988 
L 628 4550 
Q 988 4650 1302 4700 
Q 1616 4750 1894 4750 
Q 2613 4750 3031 4423 
Q 3450 4097 3450 3541 
Q 3450 3153 3228 2886 
Q 3006 2619 2597 2516 
z
" transform="scale(0.015625)"/>
       </defs>
       <use xlink:href="#DejaVuSans-33"/>
       <use xlink:href="#DejaVuSans-30" x="63.623047"/>
       <use xlink:href="#DejaVuSans-30" x="127.246094"/>
      </g>
     </g>
    </g>
    <g id="xtick_5">
     <g id="line2d_9">
      <path d="M 392.211774 248.2 
L 392.211774 10.8 
" clip-path="url(#pfa7b6bf39a)" style="fill: none; stroke: #b0b0b0; stroke-width: 0.8; stroke-linecap: square"/>
     </g>
     <g id="line2d_10">
      <g>
       <use xlink:href="#mdc7ecd5db2" x="392.211774" y="248.2" style="stroke: #000000; stroke-width: 0.8"/>
      </g>
     </g>
     <g id="text_5">
      <!-- 400 -->
      <g transform="translate(382.668024 262.798438) scale(0.1 -0.1)">
       <defs>
        <path id="DejaVuSans-34" d="M 2419 4116 
L 825 1625 
L 2419 1625 
L 2419 4116 
z
M 2253 4666 
L 3047 4666 
L 3047 1625 
L 3713 1625 
L 3713 1100 
L 3047 1100 
L 3047 0 
L 2419 0 
L 2419 1100 
L 313 1100 
L 313 1709 
L 2253 4666 
z
" transform="scale(0.015625)"/>
       </defs>
       <use xlink:href="#DejaVuSans-34"/>
       <use xlink:href="#DejaVuSans-30" x="63.623047"/>
       <use xlink:href="#DejaVuSans-30" x="127.246094"/>
      </g>
     </g>
    </g>
    <g id="xtick_6">
     <g id="line2d_11">
      <path d="M 473.719624 248.2 
L 473.719624 10.8 
" clip-path="url(#pfa7b6bf39a)" style="fill: none; stroke: #b0b0b0; stroke-width: 0.8; stroke-linecap: square"/>
     </g>
     <g id="line2d_12">
      <g>
       <use xlink:href="#mdc7ecd5db2" x="473.719624" y="248.2" style="stroke: #000000; stroke-width: 0.8"/>
      </g>
     </g>
     <g id="text_6">
      <!-- 500 -->
      <g transform="translate(464.175874 262.798438) scale(0.1 -0.1)">
       <defs>
        <path id="DejaVuSans-35" d="M 691 4666 
L 3169 4666 
L 3169 4134 
L 1269 4134 
L 1269 2991 
Q 1406 3038 1543 3061 
Q 1681 3084 1819 3084 
Q 2600 3084 3056 2656 
Q 3513 2228 3513 1497 
Q 3513 744 3044 326 
Q 2575 -91 1722 -91 
Q 1428 -91 1123 -41 
Q 819 9 494 109 
L 494 744 
Q 775 591 1075 516 
Q 1375 441 1709 441 
Q 2250 441 2565 725 
Q 2881 1009 2881 1497 
Q 2881 1984 2565 2268 
Q 2250 2553 1709 2553 
Q 1456 2553 1204 2497 
Q 953 2441 691 2322 
L 691 4666 
z
" transform="scale(0.015625)"/>
       </defs>
       <use xlink:href="#DejaVuSans-35"/>
       <use xlink:href="#DejaVuSans-30" x="63.623047"/>
       <use xlink:href="#DejaVuSans-30" x="127.246094"/>
      </g>
     </g>
    </g>
    <g id="text_7">
     <!-- Max number of iterations -->
     <g transform="translate(206.784375 276.476562) scale(0.1 -0.1)">
      <defs>
       <path id="DejaVuSans-4d" d="M 628 4666 
L 1569 4666 
L 2759 1491 
L 3956 4666 
L 4897 4666 
L 4897 0 
L 4281 0 
L 4281 4097 
L 3078 897 
L 2444 897 
L 1241 4097 
L 1241 0 
L 628 0 
L 628 4666 
z
" transform="scale(0.015625)"/>
       <path id="DejaVuSans-61" d="M 2194 1759 
Q 1497 1759 1228 1600 
Q 959 1441 959 1056 
Q 959 750 1161 570 
Q 1363 391 1709 391 
Q 2188 391 2477 730 
Q 2766 1069 2766 1631 
L 2766 1759 
L 2194 1759 
z
M 3341 1997 
L 3341 0 
L 2766 0 
L 2766 531 
Q 2569 213 2275 61 
Q 1981 -91 1556 -91 
Q 1019 -91 701 211 
Q 384 513 384 1019 
Q 384 1609 779 1909 
Q 1175 2209 1959 2209 
L 2766 2209 
L 2766 2266 
Q 2766 2663 2505 2880 
Q 2244 3097 1772 3097 
Q 1472 3097 1187 3025 
Q 903 2953 641 2809 
L 641 3341 
Q 956 3463 1253 3523 
Q 1550 3584 1831 3584 
Q 2591 3584 2966 3190 
Q 3341 2797 3341 1997 
z
" transform="scale(0.015625)"/>
       <path id="DejaVuSans-78" d="M 3513 3500 
L 2247 1797 
L 3578 0 
L 2900 0 
L 1881 1375 
L 863 0 
L 184 0 
L 1544 1831 
L 300 3500 
L 978 3500 
L 1906 2253 
L 2834 3500 
L 3513 3500 
z
" transform="scale(0.015625)"/>
       <path id="DejaVuSans-20" transform="scale(0.015625)"/>
       <path id="DejaVuSans-6e" d="M 3513 2113 
L 3513 0 
L 2938 0 
L 2938 2094 
Q 2938 2591 2744 2837 
Q 2550 3084 2163 3084 
Q 1697 3084 1428 2787 
Q 1159 2491 1159 1978 
L 1159 0 
L 581 0 
L 581 3500 
L 1159 3500 
L 1159 2956 
Q 1366 3272 1645 3428 
Q 1925 3584 2291 3584 
Q 2894 3584 3203 3211 
Q 3513 2838 3513 2113 
z
" transform="scale(0.015625)"/>
       <path id="DejaVuSans-75" d="M 544 1381 
L 544 3500 
L 1119 3500 
L 1119 1403 
Q 1119 906 1312 657 
Q 1506 409 1894 409 
Q 2359 409 2629 706 
Q 2900 1003 2900 1516 
L 2900 3500 
L 3475 3500 
L 3475 0 
L 2900 0 
L 2900 538 
Q 2691 219 2414 64 
Q 2138 -91 1772 -91 
Q 1169 -91 856 284 
Q 544 659 544 1381 
z
M 1991 3584 
L 1991 3584 
z
" transform="scale(0.015625)"/>
       <path id="DejaVuSans-6d" d="M 3328 2828 
Q 3544 3216 3844 3400 
Q 4144 3584 4550 3584 
Q 5097 3584 5394 3201 
Q 5691 2819 5691 2113 
L 5691 0 
L 5113 0 
L 5113 2094 
Q 5113 2597 4934 2840 
Q 4756 3084 4391 3084 
Q 3944 3084 3684 2787 
Q 3425 2491 3425 1978 
L 3425 0 
L 2847 0 
L 2847 2094 
Q 2847 2600 2669 2842 
Q 2491 3084 2119 3084 
Q 1678 3084 1418 2786 
Q 1159 2488 1159 1978 
L 1159 0 
L 581 0 
L 581 3500 
L 1159 3500 
L 1159 2956 
Q 1356 3278 1631 3431 
Q 1906 3584 2284 3584 
Q 2666 3584 2933 3390 
Q 3200 3197 3328 2828 
z
" transform="scale(0.015625)"/>
       <path id="DejaVuSans-62" d="M 3116 1747 
Q 3116 2381 2855 2742 
Q 2594 3103 2138 3103 
Q 1681 3103 1420 2742 
Q 1159 2381 1159 1747 
Q 1159 1113 1420 752 
Q 1681 391 2138 391 
Q 2594 391 2855 752 
Q 3116 1113 3116 1747 
z
M 1159 2969 
Q 1341 3281 1617 3432 
Q 1894 3584 2278 3584 
Q 2916 3584 3314 3078 
Q 3713 2572 3713 1747 
Q 3713 922 3314 415 
Q 2916 -91 2278 -91 
Q 1894 -91 1617 61 
Q 1341 213 1159 525 
L 1159 0 
L 581 0 
L 581 4863 
L 1159 4863 
L 1159 2969 
z
" transform="scale(0.015625)"/>
       <path id="DejaVuSans-65" d="M 3597 1894 
L 3597 1613 
L 953 1613 
Q 991 1019 1311 708 
Q 1631 397 2203 397 
Q 2534 397 2845 478 
Q 3156 559 3463 722 
L 3463 178 
Q 3153 47 2828 -22 
Q 2503 -91 2169 -91 
Q 1331 -91 842 396 
Q 353 884 353 1716 
Q 353 2575 817 3079 
Q 1281 3584 2069 3584 
Q 2775 3584 3186 3129 
Q 3597 2675 3597 1894 
z
M 3022 2063 
Q 3016 2534 2758 2815 
Q 2500 3097 2075 3097 
Q 1594 3097 1305 2825 
Q 1016 2553 972 2059 
L 3022 2063 
z
" transform="scale(0.015625)"/>
       <path id="DejaVuSans-72" d="M 2631 2963 
Q 2534 3019 2420 3045 
Q 2306 3072 2169 3072 
Q 1681 3072 1420 2755 
Q 1159 2438 1159 1844 
L 1159 0 
L 581 0 
L 581 3500 
L 1159 3500 
L 1159 2956 
Q 1341 3275 1631 3429 
Q 1922 3584 2338 3584 
Q 2397 3584 2469 3576 
Q 2541 3569 2628 3553 
L 2631 2963 
z
" transform="scale(0.015625)"/>
       <path id="DejaVuSans-6f" d="M 1959 3097 
Q 1497 3097 1228 2736 
Q 959 2375 959 1747 
Q 959 1119 1226 758 
Q 1494 397 1959 397 
Q 2419 397 2687 759 
Q 2956 1122 2956 1747 
Q 2956 2369 2687 2733 
Q 2419 3097 1959 3097 
z
M 1959 3584 
Q 2709 3584 3137 3096 
Q 3566 2609 3566 1747 
Q 3566 888 3137 398 
Q 2709 -91 1959 -91 
Q 1206 -91 779 398 
Q 353 888 353 1747 
Q 353 2609 779 3096 
Q 1206 3584 1959 3584 
z
" transform="scale(0.015625)"/>
       <path id="DejaVuSans-66" d="M 2375 4863 
L 2375 4384 
L 1825 4384 
Q 1516 4384 1395 4259 
Q 1275 4134 1275 3809 
L 1275 3500 
L 2222 3500 
L 2222 3053 
L 1275 3053 
L 1275 0 
L 697 0 
L 697 3053 
L 147 3053 
L 147 3500 
L 697 3500 
L 697 3744 
Q 697 4328 969 4595 
Q 1241 4863 1831 4863 
L 2375 4863 
z
" transform="scale(0.015625)"/>
       <path id="DejaVuSans-69" d="M 603 3500 
L 1178 3500 
L 1178 0 
L 603 0 
L 603 3500 
z
M 603 4863 
L 1178 4863 
L 1178 4134 
L 603 4134 
L 603 4863 
z
" transform="scale(0.015625)"/>
       <path id="DejaVuSans-74" d="M 1172 4494 
L 1172 3500 
L 2356 3500 
L 2356 3053 
L 1172 3053 
L 1172 1153 
Q 1172 725 1289 603 
Q 1406 481 1766 481 
L 2356 481 
L 2356 0 
L 1766 0 
Q 1100 0 847 248 
Q 594 497 594 1153 
L 594 3053 
L 172 3053 
L 172 3500 
L 594 3500 
L 594 4494 
L 1172 4494 
z
" transform="scale(0.015625)"/>
       <path id="DejaVuSans-73" d="M 2834 3397 
L 2834 2853 
Q 2591 2978 2328 3040 
Q 2066 3103 1784 3103 
Q 1356 3103 1142 2972 
Q 928 2841 928 2578 
Q 928 2378 1081 2264 
Q 1234 2150 1697 2047 
L 1894 2003 
Q 2506 1872 2764 1633 
Q 3022 1394 3022 966 
Q 3022 478 2636 193 
Q 2250 -91 1575 -91 
Q 1294 -91 989 -36 
Q 684 19 347 128 
L 347 722 
Q 666 556 975 473 
Q 1284 391 1588 391 
Q 1994 391 2212 530 
Q 2431 669 2431 922 
Q 2431 1156 2273 1281 
Q 2116 1406 1581 1522 
L 1381 1569 
Q 847 1681 609 1914 
Q 372 2147 372 2553 
Q 372 3047 722 3315 
Q 1072 3584 1716 3584 
Q 2034 3584 2315 3537 
Q 2597 3491 2834 3397 
z
" transform="scale(0.015625)"/>
      </defs>
      <use xlink:href="#DejaVuSans-4d"/>
      <use xlink:href="#DejaVuSans-61" x="86.279297"/>
      <use xlink:href="#DejaVuSans-78" x="147.558594"/>
      <use xlink:href="#DejaVuSans-20" x="206.738281"/>
      <use xlink:href="#DejaVuSans-6e" x="238.525391"/>
      <use xlink:href="#DejaVuSans-75" x="301.904297"/>
      <use xlink:href="#DejaVuSans-6d" x="365.283203"/>
      <use xlink:href="#DejaVuSans-62" x="462.695312"/>
      <use xlink:href="#DejaVuSans-65" x="526.171875"/>
      <use xlink:href="#DejaVuSans-72" x="587.695312"/>
      <use xlink:href="#DejaVuSans-20" x="628.808594"/>
      <use xlink:href="#DejaVuSans-6f" x="660.595703"/>
      <use xlink:href="#DejaVuSans-66" x="721.777344"/>
      <use xlink:href="#DejaVuSans-20" x="756.982422"/>
      <use xlink:href="#DejaVuSans-69" x="788.769531"/>
      <use xlink:href="#DejaVuSans-74" x="816.552734"/>
      <use xlink:href="#DejaVuSans-65" x="855.761719"/>
      <use xlink:href="#DejaVuSans-72" x="917.285156"/>
      <use xlink:href="#DejaVuSans-61" x="958.398438"/>
      <use xlink:href="#DejaVuSans-74" x="1019.677734"/>
      <use xlink:href="#DejaVuSans-69" x="1058.886719"/>
      <use xlink:href="#DejaVuSans-6f" x="1086.669922"/>
      <use xlink:href="#DejaVuSans-6e" x="1147.851562"/>
      <use xlink:href="#DejaVuSans-73" x="1211.230469"/>
     </g>
    </g>
   </g>
   <g id="matplotlib.axis_2">
    <g id="ytick_1">
     <g id="line2d_13">
      <path d="M 46.7 237.409091 
L 493.2 237.409091 
" clip-path="url(#pfa7b6bf39a)" style="fill: none; stroke: #b0b0b0; stroke-width: 0.8; stroke-linecap: square"/>
     </g>
     <g id="line2d_14">
      <defs>
       <path id="m823acd6385" d="M 0 0 
L -3.5 0 
" style="stroke: #000000; stroke-width: 0.8"/>
      </defs>
      <g>
       <use xlink:href="#m823acd6385" x="46.7" y="237.409091" style="stroke: #000000; stroke-width: 0.8"/>
      </g>
     </g>
     <g id="text_8">
      <!-- 0.0 -->
      <g transform="translate(23.796875 241.20831) scale(0.1 -0.1)">
       <defs>
        <path id="DejaVuSans-2e" d="M 684 794 
L 1344 794 
L 1344 0 
L 684 0 
L 684 794 
z
" transform="scale(0.015625)"/>
       </defs>
       <use xlink:href="#DejaVuSans-30"/>
       <use xlink:href="#DejaVuSans-2e" x="63.623047"/>
       <use xlink:href="#DejaVuSans-30" x="95.410156"/>
      </g>
     </g>
    </g>
    <g id="ytick_2">
     <g id="line2d_15">
      <path d="M 46.7 194.245455 
L 493.2 194.245455 
" clip-path="url(#pfa7b6bf39a)" style="fill: none; stroke: #b0b0b0; stroke-width: 0.8; stroke-linecap: square"/>
     </g>
     <g id="line2d_16">
      <g>
       <use xlink:href="#m823acd6385" x="46.7" y="194.245455" style="stroke: #000000; stroke-width: 0.8"/>
      </g>
     </g>
     <g id="text_9">
      <!-- 0.2 -->
      <g transform="translate(23.796875 198.044673) scale(0.1 -0.1)">
       <use xlink:href="#DejaVuSans-30"/>
       <use xlink:href="#DejaVuSans-2e" x="63.623047"/>
       <use xlink:href="#DejaVuSans-32" x="95.410156"/>
      </g>
     </g>
    </g>
    <g id="ytick_3">
     <g id="line2d_17">
      <path d="M 46.7 151.081818 
L 493.2 151.081818 
" clip-path="url(#pfa7b6bf39a)" style="fill: none; stroke: #b0b0b0; stroke-width: 0.8; stroke-linecap: square"/>
     </g>
     <g id="line2d_18">
      <g>
       <use xlink:href="#m823acd6385" x="46.7" y="151.081818" style="stroke: #000000; stroke-width: 0.8"/>
      </g>
     </g>
     <g id="text_10">
      <!-- 0.4 -->
      <g transform="translate(23.796875 154.881037) scale(0.1 -0.1)">
       <use xlink:href="#DejaVuSans-30"/>
       <use xlink:href="#DejaVuSans-2e" x="63.623047"/>
       <use xlink:href="#DejaVuSans-34" x="95.410156"/>
      </g>
     </g>
    </g>
    <g id="ytick_4">
     <g id="line2d_19">
      <path d="M 46.7 107.918182 
L 493.2 107.918182 
" clip-path="url(#pfa7b6bf39a)" style="fill: none; stroke: #b0b0b0; stroke-width: 0.8; stroke-linecap: square"/>
     </g>
     <g id="line2d_20">
      <g>
       <use xlink:href="#m823acd6385" x="46.7" y="107.918182" style="stroke: #000000; stroke-width: 0.8"/>
      </g>
     </g>
     <g id="text_11">
      <!-- 0.6 -->
      <g transform="translate(23.796875 111.717401) scale(0.1 -0.1)">
       <defs>
        <path id="DejaVuSans-36" d="M 2113 2584 
Q 1688 2584 1439 2293 
Q 1191 2003 1191 1497 
Q 1191 994 1439 701 
Q 1688 409 2113 409 
Q 2538 409 2786 701 
Q 3034 994 3034 1497 
Q 3034 2003 2786 2293 
Q 2538 2584 2113 2584 
z
M 3366 4563 
L 3366 3988 
Q 3128 4100 2886 4159 
Q 2644 4219 2406 4219 
Q 1781 4219 1451 3797 
Q 1122 3375 1075 2522 
Q 1259 2794 1537 2939 
Q 1816 3084 2150 3084 
Q 2853 3084 3261 2657 
Q 3669 2231 3669 1497 
Q 3669 778 3244 343 
Q 2819 -91 2113 -91 
Q 1303 -91 875 529 
Q 447 1150 447 2328 
Q 447 3434 972 4092 
Q 1497 4750 2381 4750 
Q 2619 4750 2861 4703 
Q 3103 4656 3366 4563 
z
" transform="scale(0.015625)"/>
       </defs>
       <use xlink:href="#DejaVuSans-30"/>
       <use xlink:href="#DejaVuSans-2e" x="63.623047"/>
       <use xlink:href="#DejaVuSans-36" x="95.410156"/>
      </g>
     </g>
    </g>
    <g id="ytick_5">
     <g id="line2d_21">
      <path d="M 46.7 64.754545 
L 493.2 64.754545 
" clip-path="url(#pfa7b6bf39a)" style="fill: none; stroke: #b0b0b0; stroke-width: 0.8; stroke-linecap: square"/>
     </g>
     <g id="line2d_22">
      <g>
       <use xlink:href="#m823acd6385" x="46.7" y="64.754545" style="stroke: #000000; stroke-width: 0.8"/>
      </g>
     </g>
     <g id="text_12">
      <!-- 0.8 -->
      <g transform="translate(23.796875 68.553764) scale(0.1 -0.1)">
       <defs>
        <path id="DejaVuSans-38" d="M 2034 2216 
Q 1584 2216 1326 1975 
Q 1069 1734 1069 1313 
Q 1069 891 1326 650 
Q 1584 409 2034 409 
Q 2484 409 2743 651 
Q 3003 894 3003 1313 
Q 3003 1734 2745 1975 
Q 2488 2216 2034 2216 
z
M 1403 2484 
Q 997 2584 770 2862 
Q 544 3141 544 3541 
Q 544 4100 942 4425 
Q 1341 4750 2034 4750 
Q 2731 4750 3128 4425 
Q 3525 4100 3525 3541 
Q 3525 3141 3298 2862 
Q 3072 2584 2669 2484 
Q 3125 2378 3379 2068 
Q 3634 1759 3634 1313 
Q 3634 634 3220 271 
Q 2806 -91 2034 -91 
Q 1263 -91 848 271 
Q 434 634 434 1313 
Q 434 1759 690 2068 
Q 947 2378 1403 2484 
z
M 1172 3481 
Q 1172 3119 1398 2916 
Q 1625 2713 2034 2713 
Q 2441 2713 2670 2916 
Q 2900 3119 2900 3481 
Q 2900 3844 2670 4047 
Q 2441 4250 2034 4250 
Q 1625 4250 1398 4047 
Q 1172 3844 1172 3481 
z
" transform="scale(0.015625)"/>
       </defs>
       <use xlink:href="#DejaVuSans-30"/>
       <use xlink:href="#DejaVuSans-2e" x="63.623047"/>
       <use xlink:href="#DejaVuSans-38" x="95.410156"/>
      </g>
     </g>
    </g>
    <g id="ytick_6">
     <g id="line2d_23">
      <path d="M 46.7 21.590909 
L 493.2 21.590909 
" clip-path="url(#pfa7b6bf39a)" style="fill: none; stroke: #b0b0b0; stroke-width: 0.8; stroke-linecap: square"/>
     </g>
     <g id="line2d_24">
      <g>
       <use xlink:href="#m823acd6385" x="46.7" y="21.590909" style="stroke: #000000; stroke-width: 0.8"/>
      </g>
     </g>
     <g id="text_13">
      <!-- 1.0 -->
      <g transform="translate(23.796875 25.390128) scale(0.1 -0.1)">
       <use xlink:href="#DejaVuSans-31"/>
       <use xlink:href="#DejaVuSans-2e" x="63.623047"/>
       <use xlink:href="#DejaVuSans-30" x="95.410156"/>
      </g>
     </g>
    </g>
    <g id="text_14">
     <!-- Proportion of problems solved -->
     <g transform="translate(17.717187 204.4375) rotate(-90) scale(0.1 -0.1)">
      <defs>
       <path id="DejaVuSans-50" d="M 1259 4147 
L 1259 2394 
L 2053 2394 
Q 2494 2394 2734 2622 
Q 2975 2850 2975 3272 
Q 2975 3691 2734 3919 
Q 2494 4147 2053 4147 
L 1259 4147 
z
M 628 4666 
L 2053 4666 
Q 2838 4666 3239 4311 
Q 3641 3956 3641 3272 
Q 3641 2581 3239 2228 
Q 2838 1875 2053 1875 
L 1259 1875 
L 1259 0 
L 628 0 
L 628 4666 
z
" transform="scale(0.015625)"/>
       <path id="DejaVuSans-70" d="M 1159 525 
L 1159 -1331 
L 581 -1331 
L 581 3500 
L 1159 3500 
L 1159 2969 
Q 1341 3281 1617 3432 
Q 1894 3584 2278 3584 
Q 2916 3584 3314 3078 
Q 3713 2572 3713 1747 
Q 3713 922 3314 415 
Q 2916 -91 2278 -91 
Q 1894 -91 1617 61 
Q 1341 213 1159 525 
z
M 3116 1747 
Q 3116 2381 2855 2742 
Q 2594 3103 2138 3103 
Q 1681 3103 1420 2742 
Q 1159 2381 1159 1747 
Q 1159 1113 1420 752 
Q 1681 391 2138 391 
Q 2594 391 2855 752 
Q 3116 1113 3116 1747 
z
" transform="scale(0.015625)"/>
       <path id="DejaVuSans-6c" d="M 603 4863 
L 1178 4863 
L 1178 0 
L 603 0 
L 603 4863 
z
" transform="scale(0.015625)"/>
       <path id="DejaVuSans-76" d="M 191 3500 
L 800 3500 
L 1894 563 
L 2988 3500 
L 3597 3500 
L 2284 0 
L 1503 0 
L 191 3500 
z
" transform="scale(0.015625)"/>
       <path id="DejaVuSans-64" d="M 2906 2969 
L 2906 4863 
L 3481 4863 
L 3481 0 
L 2906 0 
L 2906 525 
Q 2725 213 2448 61 
Q 2172 -91 1784 -91 
Q 1150 -91 751 415 
Q 353 922 353 1747 
Q 353 2572 751 3078 
Q 1150 3584 1784 3584 
Q 2172 3584 2448 3432 
Q 2725 3281 2906 2969 
z
M 947 1747 
Q 947 1113 1208 752 
Q 1469 391 1925 391 
Q 2381 391 2643 752 
Q 2906 1113 2906 1747 
Q 2906 2381 2643 2742 
Q 2381 3103 1925 3103 
Q 1469 3103 1208 2742 
Q 947 2381 947 1747 
z
" transform="scale(0.015625)"/>
      </defs>
      <use xlink:href="#DejaVuSans-50"/>
      <use xlink:href="#DejaVuSans-72" x="58.552734"/>
      <use xlink:href="#DejaVuSans-6f" x="97.416016"/>
      <use xlink:href="#DejaVuSans-70" x="158.597656"/>
      <use xlink:href="#DejaVuSans-6f" x="222.074219"/>
      <use xlink:href="#DejaVuSans-72" x="283.255859"/>
      <use xlink:href="#DejaVuSans-74" x="324.369141"/>
      <use xlink:href="#DejaVuSans-69" x="363.578125"/>
      <use xlink:href="#DejaVuSans-6f" x="391.361328"/>
      <use xlink:href="#DejaVuSans-6e" x="452.542969"/>
      <use xlink:href="#DejaVuSans-20" x="515.921875"/>
      <use xlink:href="#DejaVuSans-6f" x="547.708984"/>
      <use xlink:href="#DejaVuSans-66" x="608.890625"/>
      <use xlink:href="#DejaVuSans-20" x="644.095703"/>
      <use xlink:href="#DejaVuSans-70" x="675.882812"/>
      <use xlink:href="#DejaVuSans-72" x="739.359375"/>
      <use xlink:href="#DejaVuSans-6f" x="778.222656"/>
      <use xlink:href="#DejaVuSans-62" x="839.404297"/>
      <use xlink:href="#DejaVuSans-6c" x="902.880859"/>
      <use xlink:href="#DejaVuSans-65" x="930.664062"/>
      <use xlink:href="#DejaVuSans-6d" x="992.1875"/>
      <use xlink:href="#DejaVuSans-73" x="1089.599609"/>
      <use xlink:href="#DejaVuSans-20" x="1141.699219"/>
      <use xlink:href="#DejaVuSans-73" x="1173.486328"/>
      <use xlink:href="#DejaVuSans-6f" x="1225.585938"/>
      <use xlink:href="#DejaVuSans-6c" x="1286.767578"/>
      <use xlink:href="#DejaVuSans-76" x="1314.550781"/>
      <use xlink:href="#DejaVuSans-65" x="1373.730469"/>
      <use xlink:href="#DejaVuSans-64" x="1435.253906"/>
     </g>
    </g>
   </g>
   <g id="line2d_25">
    <path d="M 66.995455 237.409091 
L 107.749379 237.409091 
L 107.749379 233.092727 
L 119.160478 233.092727 
L 119.160478 228.776364 
L 124.866028 228.776364 
L 124.866028 224.46 
L 125.681106 224.46 
L 125.681106 220.143636 
L 128.126342 220.143636 
L 128.126342 215.827273 
L 128.94142 215.827273 
L 128.94142 211.510909 
L 129.756499 211.510909 
L 129.756499 202.878182 
L 130.571577 202.878182 
L 130.571577 198.561818 
L 132.201734 198.561818 
L 132.201734 185.612727 
L 133.016813 185.612727 
L 133.016813 176.98 
L 134.64697 176.98 
L 134.64697 172.663636 
L 135.462048 172.663636 
L 135.462048 159.714545 
L 137.092205 159.714545 
L 137.092205 151.081818 
L 137.907284 151.081818 
L 137.907284 142.449091 
L 138.722362 142.449091 
L 138.722362 133.816364 
L 139.537441 133.816364 
L 139.537441 129.5 
L 140.352519 129.5 
L 140.352519 125.183636 
L 141.167598 125.183636 
L 141.167598 116.550909 
L 143.612833 116.550909 
L 143.612833 107.918182 
L 145.24299 107.918182 
L 145.24299 94.969091 
L 147.688226 94.969091 
L 147.688226 90.652727 
L 148.503304 90.652727 
L 148.503304 82.02 
L 149.318383 82.02 
L 149.318383 77.703636 
L 150.94854 77.703636 
L 150.94854 69.070909 
L 151.763618 69.070909 
L 151.763618 64.754545 
L 152.578697 64.754545 
L 152.578697 56.121818 
L 153.393775 56.121818 
L 153.393775 51.805455 
L 155.839011 51.805455 
L 155.839011 47.489091 
L 156.654089 47.489091 
L 156.654089 43.172727 
L 159.914403 43.172727 
L 159.914403 38.856364 
L 167.25011 38.856364 
L 167.25011 34.54 
L 168.065188 34.54 
L 168.065188 30.223636 
L 179.476287 30.223636 
L 179.476287 25.907273 
L 186.811993 25.907273 
L 186.811993 21.590909 
L 472.904545 21.590909 
L 472.904545 21.590909 
" clip-path="url(#pfa7b6bf39a)" style="fill: none; stroke: #ff7f0e; stroke-width: 1.5; stroke-linecap: square"/>
   </g>
   <g id="line2d_26">
    <path d="M 66.995455 237.409091 
L 85.74226 237.409091 
L 85.74226 224.46 
L 86.557338 224.46 
L 86.557338 211.510909 
L 87.372417 211.510909 
L 87.372417 120.867273 
L 88.187495 120.867273 
L 88.187495 112.234545 
L 89.002574 112.234545 
L 89.002574 103.601818 
L 106.119222 103.601818 
L 106.119222 99.285455 
L 106.934301 99.285455 
L 106.934301 82.02 
L 118.3454 82.02 
L 118.3454 77.703636 
L 121.605714 77.703636 
L 121.605714 73.387273 
L 129.756499 73.387273 
L 129.756499 69.070909 
L 210.44927 69.070909 
L 210.44927 64.754545 
L 218.600055 64.754545 
L 218.600055 60.438182 
L 221.04529 60.438182 
L 221.04529 56.121818 
L 261.799215 56.121818 
L 261.799215 51.805455 
L 265.874608 51.805455 
L 265.874608 47.489091 
L 277.285706 47.489091 
L 277.285706 43.172727 
L 339.231672 43.172727 
L 339.231672 38.856364 
L 350.642771 38.856364 
L 350.642771 34.54 
L 362.868949 34.54 
L 362.868949 30.223636 
L 399.547481 30.223636 
L 399.547481 25.907273 
L 401.992716 25.907273 
L 401.992716 21.590909 
L 472.904545 21.590909 
L 472.904545 21.590909 
" clip-path="url(#pfa7b6bf39a)" style="fill: none; stroke: #2ca02c; stroke-width: 1.5; stroke-linecap: square"/>
   </g>
   <g id="line2d_27">
    <path d="M 66.995455 237.409091 
L 87.372417 237.409091 
L 87.372417 172.663636 
L 88.187495 172.663636 
L 88.187495 125.183636 
L 89.002574 125.183636 
L 89.002574 112.234545 
L 89.817652 112.234545 
L 89.817652 103.601818 
L 93.893045 103.601818 
L 93.893045 99.285455 
L 111.824772 99.285455 
L 111.824772 94.969091 
L 119.975557 94.969091 
L 119.975557 90.652727 
L 123.235871 90.652727 
L 123.235871 86.336364 
L 124.866028 86.336364 
L 124.866028 82.02 
L 129.756499 82.02 
L 129.756499 77.703636 
L 134.64697 77.703636 
L 134.64697 73.387273 
L 150.133461 73.387273 
L 150.133461 69.070909 
L 153.393775 69.070909 
L 153.393775 64.754545 
L 155.023932 64.754545 
L 155.023932 60.438182 
L 265.874608 60.438182 
L 265.874608 56.121818 
L 290.326962 56.121818 
L 290.326962 51.805455 
L 305.813454 51.805455 
L 305.813454 47.489091 
L 317.224553 47.489091 
L 317.224553 43.172727 
L 340.046751 43.172727 
L 340.046751 38.856364 
L 344.122143 38.856364 
L 344.122143 34.54 
L 345.7523 34.54 
L 345.7523 30.223636 
L 379.170518 30.223636 
L 379.170518 25.907273 
L 391.396696 25.907273 
L 391.396696 21.590909 
L 472.904545 21.590909 
L 472.904545 21.590909 
" clip-path="url(#pfa7b6bf39a)" style="fill: none; stroke: #d62728; stroke-width: 1.5; stroke-linecap: square"/>
   </g>
   <g id="line2d_28">
    <path d="M 66.995455 237.409091 
L 102.858908 237.409091 
L 102.858908 233.092727 
L 103.673987 233.092727 
L 103.673987 228.776364 
L 167.25011 228.776364 
L 167.25011 224.46 
L 180.291365 224.46 
L 180.291365 220.143636 
L 194.962778 220.143636 
L 194.962778 215.827273 
L 197.408014 215.827273 
L 197.408014 211.510909 
L 199.853249 211.510909 
L 199.853249 207.194545 
L 200.668328 207.194545 
L 200.668328 198.561818 
L 201.483406 198.561818 
L 201.483406 194.245455 
L 202.298485 194.245455 
L 202.298485 189.929091 
L 213.709584 189.929091 
L 213.709584 185.612727 
L 214.524662 185.612727 
L 214.524662 181.296364 
L 215.339741 181.296364 
L 215.339741 172.663636 
L 216.154819 172.663636 
L 216.154819 155.398182 
L 216.969898 155.398182 
L 216.969898 146.765455 
L 225.120683 146.765455 
L 225.120683 142.449091 
L 228.380997 142.449091 
L 228.380997 138.132727 
L 230.011154 138.132727 
L 230.011154 129.5 
L 230.826232 129.5 
L 230.826232 125.183636 
L 231.641311 125.183636 
L 231.641311 116.550909 
L 232.456389 116.550909 
L 232.456389 103.601818 
L 233.271468 103.601818 
L 233.271468 99.285455 
L 234.086546 99.285455 
L 234.086546 94.969091 
L 235.716703 94.969091 
L 235.716703 90.652727 
L 240.607174 90.652727 
L 240.607174 86.336364 
L 244.682567 86.336364 
L 244.682567 82.02 
L 253.64843 82.02 
L 253.64843 77.703636 
L 254.463509 77.703636 
L 254.463509 73.387273 
L 268.319843 73.387273 
L 268.319843 69.070909 
L 272.395235 69.070909 
L 272.395235 64.754545 
L 276.470628 64.754545 
L 276.470628 60.438182 
L 284.621413 60.438182 
L 284.621413 56.121818 
L 310.703925 56.121818 
L 310.703925 51.805455 
L 337.601515 51.805455 
L 337.601515 47.489091 
L 354.718164 47.489091 
L 354.718164 43.172727 
L 375.095126 43.172727 
L 375.095126 38.856364 
L 380.800675 38.856364 
L 380.800675 34.54 
L 382.430832 34.54 
L 382.430832 30.223636 
L 433.780778 30.223636 
L 433.780778 25.907273 
L 472.904545 25.907273 
L 472.904545 25.907273 
" clip-path="url(#pfa7b6bf39a)" style="fill: none; stroke: #9467bd; stroke-width: 1.5; stroke-linecap: square"/>
   </g>
   <g id="line2d_29">
    <path d="M 66.995455 237.409091 
L 97.968437 237.409091 
L 97.968437 224.46 
L 100.413673 224.46 
L 100.413673 220.143636 
L 101.228751 220.143636 
L 101.228751 215.827273 
L 102.04383 215.827273 
L 102.04383 211.510909 
L 102.858908 211.510909 
L 102.858908 207.194545 
L 103.673987 207.194545 
L 103.673987 202.878182 
L 106.934301 202.878182 
L 106.934301 198.561818 
L 109.379536 198.561818 
L 109.379536 194.245455 
L 115.900164 194.245455 
L 115.900164 189.929091 
L 117.530321 189.929091 
L 117.530321 185.612727 
L 118.3454 185.612727 
L 118.3454 172.663636 
L 119.160478 172.663636 
L 119.160478 164.030909 
L 119.975557 164.030909 
L 119.975557 155.398182 
L 120.790635 155.398182 
L 120.790635 146.765455 
L 121.605714 146.765455 
L 121.605714 142.449091 
L 122.420792 142.449091 
L 122.420792 138.132727 
L 125.681106 138.132727 
L 125.681106 129.5 
L 127.311263 129.5 
L 127.311263 120.867273 
L 157.469168 120.867273 
L 157.469168 116.550909 
L 166.435031 116.550909 
L 166.435031 112.234545 
L 199.853249 112.234545 
L 199.853249 107.918182 
L 200.668328 107.918182 
L 200.668328 103.601818 
L 201.483406 103.601818 
L 201.483406 99.285455 
L 212.079427 99.285455 
L 212.079427 94.969091 
L 223.490526 94.969091 
L 223.490526 90.652727 
L 226.75084 90.652727 
L 226.75084 86.336364 
L 233.271468 86.336364 
L 233.271468 82.02 
L 242.237331 82.02 
L 242.237331 77.703636 
L 256.908744 77.703636 
L 256.908744 73.387273 
L 258.538901 73.387273 
L 258.538901 69.070909 
L 270.765078 69.070909 
L 270.765078 64.754545 
L 273.210314 64.754545 
L 273.210314 60.438182 
L 291.957119 60.438182 
L 291.957119 56.121818 
L 304.183297 56.121818 
L 304.183297 51.805455 
L 305.813454 51.805455 
L 305.813454 47.489091 
L 331.080887 47.489091 
L 331.080887 43.172727 
L 390.581617 43.172727 
L 390.581617 38.856364 
L 391.396696 38.856364 
L 391.396696 34.54 
L 397.102245 34.54 
L 397.102245 30.223636 
L 402.807795 30.223636 
L 402.807795 25.907273 
L 428.890307 25.907273 
L 428.890307 21.590909 
L 472.904545 21.590909 
L 472.904545 21.590909 
" clip-path="url(#pfa7b6bf39a)" style="fill: none; stroke: #8c564b; stroke-width: 1.5; stroke-linecap: square"/>
   </g>
   <g id="line2d_30">
    <path d="M 66.995455 237.409091 
L 81.666867 237.409091 
L 81.666867 233.092727 
L 82.481946 233.092727 
L 82.481946 215.827273 
L 83.297024 215.827273 
L 83.297024 194.245455 
L 84.112103 194.245455 
L 84.112103 181.296364 
L 84.927181 181.296364 
L 84.927181 168.347273 
L 86.557338 168.347273 
L 86.557338 151.081818 
L 89.002574 151.081818 
L 89.002574 142.449091 
L 90.632731 142.449091 
L 90.632731 133.816364 
L 92.262888 133.816364 
L 92.262888 129.5 
L 93.893045 129.5 
L 93.893045 120.867273 
L 94.708123 120.867273 
L 94.708123 107.918182 
L 96.33828 107.918182 
L 96.33828 99.285455 
L 97.968437 99.285455 
L 97.968437 86.336364 
L 98.783516 86.336364 
L 98.783516 82.02 
L 99.598594 82.02 
L 99.598594 77.703636 
L 102.04383 77.703636 
L 102.04383 73.387273 
L 103.673987 73.387273 
L 103.673987 69.070909 
L 106.119222 69.070909 
L 106.119222 60.438182 
L 111.824772 60.438182 
L 111.824772 56.121818 
L 112.63985 56.121818 
L 112.63985 51.805455 
L 136.277127 51.805455 
L 136.277127 43.172727 
L 138.722362 43.172727 
L 138.722362 38.856364 
L 150.133461 38.856364 
L 150.133461 34.54 
L 155.839011 34.54 
L 155.839011 30.223636 
L 260.984137 30.223636 
L 260.984137 25.907273 
L 358.793556 25.907273 
L 358.793556 21.590909 
L 472.904545 21.590909 
L 472.904545 21.590909 
" clip-path="url(#pfa7b6bf39a)" style="fill: none; stroke: #e377c2; stroke-width: 1.5; stroke-linecap: square"/>
   </g>
   <g id="line2d_31">
    <path d="M 66.995455 237.409091 
L 82.481946 237.409091 
L 82.481946 233.092727 
L 83.297024 233.092727 
L 83.297024 224.46 
L 84.112103 224.46 
L 84.112103 202.878182 
L 85.74226 202.878182 
L 85.74226 176.98 
L 86.557338 176.98 
L 86.557338 159.714545 
L 87.372417 159.714545 
L 87.372417 155.398182 
L 88.187495 155.398182 
L 88.187495 146.765455 
L 89.002574 146.765455 
L 89.002574 138.132727 
L 89.817652 138.132727 
L 89.817652 129.5 
L 90.632731 129.5 
L 90.632731 125.183636 
L 91.447809 125.183636 
L 91.447809 120.867273 
L 92.262888 120.867273 
L 92.262888 107.918182 
L 93.077966 107.918182 
L 93.077966 99.285455 
L 93.893045 99.285455 
L 93.893045 86.336364 
L 95.523202 86.336364 
L 95.523202 82.02 
L 96.33828 82.02 
L 96.33828 77.703636 
L 97.153359 77.703636 
L 97.153359 73.387273 
L 97.968437 73.387273 
L 97.968437 64.754545 
L 98.783516 64.754545 
L 98.783516 56.121818 
L 99.598594 56.121818 
L 99.598594 51.805455 
L 102.858908 51.805455 
L 102.858908 47.489091 
L 103.673987 47.489091 
L 103.673987 43.172727 
L 110.194615 43.172727 
L 110.194615 38.856364 
L 112.63985 38.856364 
L 112.63985 34.54 
L 122.420792 34.54 
L 122.420792 30.223636 
L 125.681106 30.223636 
L 125.681106 25.907273 
L 146.058069 25.907273 
L 146.058069 21.590909 
L 472.904545 21.590909 
L 472.904545 21.590909 
" clip-path="url(#pfa7b6bf39a)" style="fill: none; stroke: #7f7f7f; stroke-width: 1.5; stroke-linecap: square"/>
   </g>
   <g id="patch_3">
    <path d="M 46.7 248.2 
L 46.7 10.8 
" style="fill: none; stroke: #000000; stroke-width: 0.8; stroke-linejoin: miter; stroke-linecap: square"/>
   </g>
   <g id="patch_4">
    <path d="M 493.2 248.2 
L 493.2 10.8 
" style="fill: none; stroke: #000000; stroke-width: 0.8; stroke-linejoin: miter; stroke-linecap: square"/>
   </g>
   <g id="patch_5">
    <path d="M 46.7 248.2 
L 493.2 248.2 
" style="fill: none; stroke: #000000; stroke-width: 0.8; stroke-linejoin: miter; stroke-linecap: square"/>
   </g>
   <g id="patch_6">
    <path d="M 46.7 10.8 
L 493.2 10.8 
" style="fill: none; stroke: #000000; stroke-width: 0.8; stroke-linejoin: miter; stroke-linecap: square"/>
   </g>
   <g id="legend_1">
    <g id="patch_7">
     <path d="M 419.89875 244.2 
L 487.6 244.2 
Q 489.2 244.2 489.2 242.6 
L 489.2 161.2025 
Q 489.2 159.6025 487.6 159.6025 
L 419.89875 159.6025 
Q 418.29875 159.6025 418.29875 161.2025 
L 418.29875 242.6 
Q 418.29875 244.2 419.89875 244.2 
z
" style="fill: #ffffff; opacity: 0.8; stroke: #cccccc; stroke-linejoin: miter"/>
    </g>
    <g id="line2d_32">
     <path d="M 421.49875 166.08125 
L 421.49875 166.08125 
L 429.49875 166.08125 
L 429.49875 166.08125 
L 437.49875 166.08125 
" style="fill: none; stroke: #ff7f0e; stroke-width: 1.5; stroke-linecap: square"/>
    </g>
    <g id="text_15">
     <!-- Ipopt:1 -->
     <g transform="translate(443.89875 168.88125) scale(0.08 -0.08)">
      <defs>
       <path id="DejaVuSans-49" d="M 628 4666 
L 1259 4666 
L 1259 0 
L 628 0 
L 628 4666 
z
" transform="scale(0.015625)"/>
       <path id="DejaVuSans-3a" d="M 750 794 
L 1409 794 
L 1409 0 
L 750 0 
L 750 794 
z
M 750 3309 
L 1409 3309 
L 1409 2516 
L 750 2516 
L 750 3309 
z
" transform="scale(0.015625)"/>
      </defs>
      <use xlink:href="#DejaVuSans-49"/>
      <use xlink:href="#DejaVuSans-70" x="29.492188"/>
      <use xlink:href="#DejaVuSans-6f" x="92.96875"/>
      <use xlink:href="#DejaVuSans-70" x="154.150391"/>
      <use xlink:href="#DejaVuSans-74" x="217.626953"/>
      <use xlink:href="#DejaVuSans-3a" x="256.835938"/>
      <use xlink:href="#DejaVuSans-31" x="290.527344"/>
     </g>
    </g>
    <g id="line2d_33">
     <path d="M 421.49875 177.82375 
L 421.49875 177.82375 
L 429.49875 177.82375 
L 429.49875 177.82375 
L 437.49875 177.82375 
" style="fill: none; stroke: #2ca02c; stroke-width: 1.5; stroke-linecap: square"/>
    </g>
    <g id="text_16">
     <!-- ProxDDP:0 -->
     <g transform="translate(443.89875 180.62375) scale(0.08 -0.08)">
      <defs>
       <path id="DejaVuSans-44" d="M 1259 4147 
L 1259 519 
L 2022 519 
Q 2988 519 3436 956 
Q 3884 1394 3884 2338 
Q 3884 3275 3436 3711 
Q 2988 4147 2022 4147 
L 1259 4147 
z
M 628 4666 
L 1925 4666 
Q 3281 4666 3915 4102 
Q 4550 3538 4550 2338 
Q 4550 1131 3912 565 
Q 3275 0 1925 0 
L 628 0 
L 628 4666 
z
" transform="scale(0.015625)"/>
      </defs>
      <use xlink:href="#DejaVuSans-50"/>
      <use xlink:href="#DejaVuSans-72" x="58.552734"/>
      <use xlink:href="#DejaVuSans-6f" x="97.416016"/>
      <use xlink:href="#DejaVuSans-78" x="155.472656"/>
      <use xlink:href="#DejaVuSans-44" x="214.652344"/>
      <use xlink:href="#DejaVuSans-44" x="291.654297"/>
      <use xlink:href="#DejaVuSans-50" x="368.65625"/>
      <use xlink:href="#DejaVuSans-3a" x="428.958984"/>
      <use xlink:href="#DejaVuSans-30" x="462.650391"/>
     </g>
    </g>
    <g id="line2d_34">
     <path d="M 421.49875 189.56625 
L 421.49875 189.56625 
L 429.49875 189.56625 
L 429.49875 189.56625 
L 437.49875 189.56625 
" style="fill: none; stroke: #d62728; stroke-width: 1.5; stroke-linecap: square"/>
    </g>
    <g id="text_17">
     <!-- ProxDDP:1 -->
     <g transform="translate(443.89875 192.36625) scale(0.08 -0.08)">
      <use xlink:href="#DejaVuSans-50"/>
      <use xlink:href="#DejaVuSans-72" x="58.552734"/>
      <use xlink:href="#DejaVuSans-6f" x="97.416016"/>
      <use xlink:href="#DejaVuSans-78" x="155.472656"/>
      <use xlink:href="#DejaVuSans-44" x="214.652344"/>
      <use xlink:href="#DejaVuSans-44" x="291.654297"/>
      <use xlink:href="#DejaVuSans-50" x="368.65625"/>
      <use xlink:href="#DejaVuSans-3a" x="428.958984"/>
      <use xlink:href="#DejaVuSans-31" x="462.650391"/>
     </g>
    </g>
    <g id="line2d_35">
     <path d="M 421.49875 201.30875 
L 421.49875 201.30875 
L 429.49875 201.30875 
L 429.49875 201.30875 
L 437.49875 201.30875 
" style="fill: none; stroke: #9467bd; stroke-width: 1.5; stroke-linecap: square"/>
    </g>
    <g id="text_18">
     <!-- ProxDDP:2 -->
     <g transform="translate(443.89875 204.10875) scale(0.08 -0.08)">
      <use xlink:href="#DejaVuSans-50"/>
      <use xlink:href="#DejaVuSans-72" x="58.552734"/>
      <use xlink:href="#DejaVuSans-6f" x="97.416016"/>
      <use xlink:href="#DejaVuSans-78" x="155.472656"/>
      <use xlink:href="#DejaVuSans-44" x="214.652344"/>
      <use xlink:href="#DejaVuSans-44" x="291.654297"/>
      <use xlink:href="#DejaVuSans-50" x="368.65625"/>
      <use xlink:href="#DejaVuSans-3a" x="428.958984"/>
      <use xlink:href="#DejaVuSans-32" x="462.650391"/>
     </g>
    </g>
    <g id="line2d_36">
     <path d="M 421.49875 213.05125 
L 421.49875 213.05125 
L 429.49875 213.05125 
L 429.49875 213.05125 
L 437.49875 213.05125 
" style="fill: none; stroke: #8c564b; stroke-width: 1.5; stroke-linecap: square"/>
    </g>
    <g id="text_19">
     <!-- ProxDDP:3 -->
     <g transform="translate(443.89875 215.85125) scale(0.08 -0.08)">
      <use xlink:href="#DejaVuSans-50"/>
      <use xlink:href="#DejaVuSans-72" x="58.552734"/>
      <use xlink:href="#DejaVuSans-6f" x="97.416016"/>
      <use xlink:href="#DejaVuSans-78" x="155.472656"/>
      <use xlink:href="#DejaVuSans-44" x="214.652344"/>
      <use xlink:href="#DejaVuSans-44" x="291.654297"/>
      <use xlink:href="#DejaVuSans-50" x="368.65625"/>
      <use xlink:href="#DejaVuSans-3a" x="428.958984"/>
      <use xlink:href="#DejaVuSans-33" x="462.650391"/>
     </g>
    </g>
    <g id="line2d_37">
     <path d="M 421.49875 224.79375 
L 421.49875 224.79375 
L 429.49875 224.79375 
L 429.49875 224.79375 
L 437.49875 224.79375 
" style="fill: none; stroke: #e377c2; stroke-width: 1.5; stroke-linecap: square"/>
    </g>
    <g id="text_20">
     <!-- ProxDDP:4 -->
     <g transform="translate(443.89875 227.59375) scale(0.08 -0.08)">
      <use xlink:href="#DejaVuSans-50"/>
      <use xlink:href="#DejaVuSans-72" x="58.552734"/>
      <use xlink:href="#DejaVuSans-6f" x="97.416016"/>
      <use xlink:href="#DejaVuSans-78" x="155.472656"/>
      <use xlink:href="#DejaVuSans-44" x="214.652344"/>
      <use xlink:href="#DejaVuSans-44" x="291.654297"/>
      <use xlink:href="#DejaVuSans-50" x="368.65625"/>
      <use xlink:href="#DejaVuSans-3a" x="428.958984"/>
      <use xlink:href="#DejaVuSans-34" x="462.650391"/>
     </g>
    </g>
    <g id="line2d_38">
     <path d="M 421.49875 236.53625 
L 421.49875 236.53625 
L 429.49875 236.53625 
L 429.49875 236.53625 
L 437.49875 236.53625 
" style="fill: none; stroke: #7f7f7f; stroke-width: 1.5; stroke-linecap: square"/>
    </g>
    <g id="text_21">
     <!-- ProxDDP:5 -->
     <g transform="translate(443.89875 239.33625) scale(0.08 -0.08)">
      <use xlink:href="#DejaVuSans-50"/>
      <use xlink:href="#DejaVuSans-72" x="58.552734"/>
      <use xlink:href="#DejaVuSans-6f" x="97.416016"/>
      <use xlink:href="#DejaVuSans-78" x="155.472656"/>
      <use xlink:href="#DejaVuSans-44" x="214.652344"/>
      <use xlink:href="#DejaVuSans-44" x="291.654297"/>
      <use xlink:href="#DejaVuSans-50" x="368.65625"/>
      <use xlink:href="#DejaVuSans-3a" x="428.958984"/>
      <use xlink:href="#DejaVuSans-35" x="462.650391"/>
     </g>
    </g>
   </g>
  </g>
 </g>
 <defs>
  <clipPath id="pfa7b6bf39a">
   <rect x="46.7" y="10.8" width="446.5" height="237.4"/>
  </clipPath>
 </defs>
</svg>
