<?xml version="1.0" encoding="utf-8" standalone="no"?>
<!DOCTYPE svg PUBLIC "-//W3C//DTD SVG 1.1//EN"
  "http://www.w3.org/Graphics/SVG/1.1/DTD/svg11.dtd">
<svg xmlns:xlink="http://www.w3.org/1999/xlink" width="504pt" height="288pt" viewBox="0 0 504 288" xmlns="http://www.w3.org/2000/svg" version="1.1">
 <metadata>
  <rdf:RDF xmlns:dc="http://purl.org/dc/elements/1.1/" xmlns:cc="http://creativecommons.org/ns#" xmlns:rdf="http://www.w3.org/1999/02/22-rdf-syntax-ns#">
   <cc:Work>
    <dc:type rdf:resource="http://purl.org/dc/dcmitype/StillImage"/>
    <dc:date>2024-11-05T16:02:30.370211</dc:date>
    <dc:format>image/svg+xml</dc:format>
    <dc:creator>
     <cc:Agent>
      <dc:title>Matplotlib v3.9.1, https://matplotlib.org/</dc:title>
     </cc:Agent>
    </dc:creator>
   </cc:Work>
  </rdf:RDF>
 </metadata>
 <defs>
  <style type="text/css">*{stroke-linejoin: round; stroke-linecap: butt}</style>
 </defs>
 <g id="figure_1">
  <g id="patch_1">
   <path d="M 0 288 
L 504 288 
L 504 0 
L 0 0 
z
" style="fill: #ffffff"/>
  </g>
  <g id="axes_1">
   <g id="patch_2">
    <path d="M 46.7 244.66 
L 493.2 244.66 
L 493.2 10.8 
L 46.7 10.8 
z
" style="fill: #ffffff"/>
   </g>
   <g id="matplotlib.axis_1">
    <g id="xtick_1">
     <g id="line2d_1">
      <path d="M 66.995455 244.66 
L 66.995455 10.8 
" clip-path="url(#p54bfe9c318)" style="fill: none; stroke: #b0b0b0; stroke-width: 0.8; stroke-linecap: square"/>
     </g>
     <g id="line2d_2">
      <defs>
       <path id="mf93c14e7b6" d="M 0 0 
L 0 3.5 
" style="stroke: #000000; stroke-width: 0.8"/>
      </defs>
      <g>
       <use xlink:href="#mf93c14e7b6" x="66.995455" y="244.66" style="stroke: #000000; stroke-width: 0.8"/>
      </g>
     </g>
     <g id="text_1">
      <!-- $\mathdefault{10^{0}}$ -->
      <g transform="translate(58.195455 259.258438) scale(0.1 -0.1)">
       <defs>
        <path id="DejaVuSans-31" d="M 794 531 
L 1825 531 
L 1825 4091 
L 703 3866 
L 703 4441 
L 1819 4666 
L 2450 4666 
L 2450 531 
L 3481 531 
L 3481 0 
L 794 0 
L 794 531 
z
" transform="scale(0.015625)"/>
        <path id="DejaVuSans-30" d="M 2034 4250 
Q 1547 4250 1301 3770 
Q 1056 3291 1056 2328 
Q 1056 1369 1301 889 
Q 1547 409 2034 409 
Q 2525 409 2770 889 
Q 3016 1369 3016 2328 
Q 3016 3291 2770 3770 
Q 2525 4250 2034 4250 
z
M 2034 4750 
Q 2819 4750 3233 4129 
Q 3647 3509 3647 2328 
Q 3647 1150 3233 529 
Q 2819 -91 2034 -91 
Q 1250 -91 836 529 
Q 422 1150 422 2328 
Q 422 3509 836 4129 
Q 1250 4750 2034 4750 
z
" transform="scale(0.015625)"/>
       </defs>
       <use xlink:href="#DejaVuSans-31" transform="translate(0 0.765625)"/>
       <use xlink:href="#DejaVuSans-30" transform="translate(63.623047 0.765625)"/>
       <use xlink:href="#DejaVuSans-30" transform="translate(128.203125 39.046875) scale(0.7)"/>
      </g>
     </g>
    </g>
    <g id="xtick_2">
     <g id="line2d_3">
      <path d="M 303.701453 244.66 
L 303.701453 10.8 
" clip-path="url(#p54bfe9c318)" style="fill: none; stroke: #b0b0b0; stroke-width: 0.8; stroke-linecap: square"/>
     </g>
     <g id="line2d_4">
      <g>
       <use xlink:href="#mf93c14e7b6" x="303.701453" y="244.66" style="stroke: #000000; stroke-width: 0.8"/>
      </g>
     </g>
     <g id="text_2">
      <!-- $\mathdefault{10^{1}}$ -->
      <g transform="translate(294.901453 259.258438) scale(0.1 -0.1)">
       <use xlink:href="#DejaVuSans-31" transform="translate(0 0.684375)"/>
       <use xlink:href="#DejaVuSans-30" transform="translate(63.623047 0.684375)"/>
       <use xlink:href="#DejaVuSans-31" transform="translate(128.203125 38.965625) scale(0.7)"/>
      </g>
     </g>
    </g>
    <g id="xtick_3">
     <g id="line2d_5">
      <path d="M 56.164382 244.66 
L 56.164382 10.8 
" clip-path="url(#p54bfe9c318)" style="fill: none; stroke: #b0b0b0; stroke-width: 0.8; stroke-linecap: square"/>
     </g>
     <g id="line2d_6">
      <defs>
       <path id="m7ffaee814c" d="M 0 0 
L 0 2 
" style="stroke: #000000; stroke-width: 0.6"/>
      </defs>
      <g>
       <use xlink:href="#m7ffaee814c" x="56.164382" y="244.66" style="stroke: #000000; stroke-width: 0.6"/>
      </g>
     </g>
    </g>
    <g id="xtick_4">
     <g id="line2d_7">
      <path d="M 138.25106 244.66 
L 138.25106 10.8 
" clip-path="url(#p54bfe9c318)" style="fill: none; stroke: #b0b0b0; stroke-width: 0.8; stroke-linecap: square"/>
     </g>
     <g id="line2d_8">
      <g>
       <use xlink:href="#m7ffaee814c" x="138.25106" y="244.66" style="stroke: #000000; stroke-width: 0.6"/>
      </g>
     </g>
    </g>
    <g id="xtick_5">
     <g id="line2d_9">
      <path d="M 179.932917 244.66 
L 179.932917 10.8 
" clip-path="url(#p54bfe9c318)" style="fill: none; stroke: #b0b0b0; stroke-width: 0.8; stroke-linecap: square"/>
     </g>
     <g id="line2d_10">
      <g>
       <use xlink:href="#m7ffaee814c" x="179.932917" y="244.66" style="stroke: #000000; stroke-width: 0.6"/>
      </g>
     </g>
    </g>
    <g id="xtick_6">
     <g id="line2d_11">
      <path d="M 209.506666 244.66 
L 209.506666 10.8 
" clip-path="url(#p54bfe9c318)" style="fill: none; stroke: #b0b0b0; stroke-width: 0.8; stroke-linecap: square"/>
     </g>
     <g id="line2d_12">
      <g>
       <use xlink:href="#m7ffaee814c" x="209.506666" y="244.66" style="stroke: #000000; stroke-width: 0.6"/>
      </g>
     </g>
    </g>
    <g id="xtick_7">
     <g id="line2d_13">
      <path d="M 232.445847 244.66 
L 232.445847 10.8 
" clip-path="url(#p54bfe9c318)" style="fill: none; stroke: #b0b0b0; stroke-width: 0.8; stroke-linecap: square"/>
     </g>
     <g id="line2d_14">
      <g>
       <use xlink:href="#m7ffaee814c" x="232.445847" y="244.66" style="stroke: #000000; stroke-width: 0.6"/>
      </g>
     </g>
    </g>
    <g id="xtick_8">
     <g id="line2d_15">
      <path d="M 251.188523 244.66 
L 251.188523 10.8 
" clip-path="url(#p54bfe9c318)" style="fill: none; stroke: #b0b0b0; stroke-width: 0.8; stroke-linecap: square"/>
     </g>
     <g id="line2d_16">
      <g>
       <use xlink:href="#m7ffaee814c" x="251.188523" y="244.66" style="stroke: #000000; stroke-width: 0.6"/>
      </g>
     </g>
    </g>
    <g id="xtick_9">
     <g id="line2d_17">
      <path d="M 267.03523 244.66 
L 267.03523 10.8 
" clip-path="url(#p54bfe9c318)" style="fill: none; stroke: #b0b0b0; stroke-width: 0.8; stroke-linecap: square"/>
     </g>
     <g id="line2d_18">
      <g>
       <use xlink:href="#m7ffaee814c" x="267.03523" y="244.66" style="stroke: #000000; stroke-width: 0.6"/>
      </g>
     </g>
    </g>
    <g id="xtick_10">
     <g id="line2d_19">
      <path d="M 280.762271 244.66 
L 280.762271 10.8 
" clip-path="url(#p54bfe9c318)" style="fill: none; stroke: #b0b0b0; stroke-width: 0.8; stroke-linecap: square"/>
     </g>
     <g id="line2d_20">
      <g>
       <use xlink:href="#m7ffaee814c" x="280.762271" y="244.66" style="stroke: #000000; stroke-width: 0.6"/>
      </g>
     </g>
    </g>
    <g id="xtick_11">
     <g id="line2d_21">
      <path d="M 292.87038 244.66 
L 292.87038 10.8 
" clip-path="url(#p54bfe9c318)" style="fill: none; stroke: #b0b0b0; stroke-width: 0.8; stroke-linecap: square"/>
     </g>
     <g id="line2d_22">
      <g>
       <use xlink:href="#m7ffaee814c" x="292.87038" y="244.66" style="stroke: #000000; stroke-width: 0.6"/>
      </g>
     </g>
    </g>
    <g id="xtick_12">
     <g id="line2d_23">
      <path d="M 374.957058 244.66 
L 374.957058 10.8 
" clip-path="url(#p54bfe9c318)" style="fill: none; stroke: #b0b0b0; stroke-width: 0.8; stroke-linecap: square"/>
     </g>
     <g id="line2d_24">
      <g>
       <use xlink:href="#m7ffaee814c" x="374.957058" y="244.66" style="stroke: #000000; stroke-width: 0.6"/>
      </g>
     </g>
    </g>
    <g id="xtick_13">
     <g id="line2d_25">
      <path d="M 416.638915 244.66 
L 416.638915 10.8 
" clip-path="url(#p54bfe9c318)" style="fill: none; stroke: #b0b0b0; stroke-width: 0.8; stroke-linecap: square"/>
     </g>
     <g id="line2d_26">
      <g>
       <use xlink:href="#m7ffaee814c" x="416.638915" y="244.66" style="stroke: #000000; stroke-width: 0.6"/>
      </g>
     </g>
    </g>
    <g id="xtick_14">
     <g id="line2d_27">
      <path d="M 446.212664 244.66 
L 446.212664 10.8 
" clip-path="url(#p54bfe9c318)" style="fill: none; stroke: #b0b0b0; stroke-width: 0.8; stroke-linecap: square"/>
     </g>
     <g id="line2d_28">
      <g>
       <use xlink:href="#m7ffaee814c" x="446.212664" y="244.66" style="stroke: #000000; stroke-width: 0.6"/>
      </g>
     </g>
    </g>
    <g id="xtick_15">
     <g id="line2d_29">
      <path d="M 469.151845 244.66 
L 469.151845 10.8 
" clip-path="url(#p54bfe9c318)" style="fill: none; stroke: #b0b0b0; stroke-width: 0.8; stroke-linecap: square"/>
     </g>
     <g id="line2d_30">
      <g>
       <use xlink:href="#m7ffaee814c" x="469.151845" y="244.66" style="stroke: #000000; stroke-width: 0.6"/>
      </g>
     </g>
    </g>
    <g id="xtick_16">
     <g id="line2d_31">
      <path d="M 487.894521 244.66 
L 487.894521 10.8 
" clip-path="url(#p54bfe9c318)" style="fill: none; stroke: #b0b0b0; stroke-width: 0.8; stroke-linecap: square"/>
     </g>
     <g id="line2d_32">
      <g>
       <use xlink:href="#m7ffaee814c" x="487.894521" y="244.66" style="stroke: #000000; stroke-width: 0.6"/>
      </g>
     </g>
    </g>
    <g id="text_3">
     <!-- Performance ratio $\tau$ -->
     <g transform="translate(221.1 272.936562) scale(0.1 -0.1)">
      <defs>
       <path id="DejaVuSans-50" d="M 1259 4147 
L 1259 2394 
L 2053 2394 
Q 2494 2394 2734 2622 
Q 2975 2850 2975 3272 
Q 2975 3691 2734 3919 
Q 2494 4147 2053 4147 
L 1259 4147 
z
M 628 4666 
L 2053 4666 
Q 2838 4666 3239 4311 
Q 3641 3956 3641 3272 
Q 3641 2581 3239 2228 
Q 2838 1875 2053 1875 
L 1259 1875 
L 1259 0 
L 628 0 
L 628 4666 
z
" transform="scale(0.015625)"/>
       <path id="DejaVuSans-65" d="M 3597 1894 
L 3597 1613 
L 953 1613 
Q 991 1019 1311 708 
Q 1631 397 2203 397 
Q 2534 397 2845 478 
Q 3156 559 3463 722 
L 3463 178 
Q 3153 47 2828 -22 
Q 2503 -91 2169 -91 
Q 1331 -91 842 396 
Q 353 884 353 1716 
Q 353 2575 817 3079 
Q 1281 3584 2069 3584 
Q 2775 3584 3186 3129 
Q 3597 2675 3597 1894 
z
M 3022 2063 
Q 3016 2534 2758 2815 
Q 2500 3097 2075 3097 
Q 1594 3097 1305 2825 
Q 1016 2553 972 2059 
L 3022 2063 
z
" transform="scale(0.015625)"/>
       <path id="DejaVuSans-72" d="M 2631 2963 
Q 2534 3019 2420 3045 
Q 2306 3072 2169 3072 
Q 1681 3072 1420 2755 
Q 1159 2438 1159 1844 
L 1159 0 
L 581 0 
L 581 3500 
L 1159 3500 
L 1159 2956 
Q 1341 3275 1631 3429 
Q 1922 3584 2338 3584 
Q 2397 3584 2469 3576 
Q 2541 3569 2628 3553 
L 2631 2963 
z
" transform="scale(0.015625)"/>
       <path id="DejaVuSans-66" d="M 2375 4863 
L 2375 4384 
L 1825 4384 
Q 1516 4384 1395 4259 
Q 1275 4134 1275 3809 
L 1275 3500 
L 2222 3500 
L 2222 3053 
L 1275 3053 
L 1275 0 
L 697 0 
L 697 3053 
L 147 3053 
L 147 3500 
L 697 3500 
L 697 3744 
Q 697 4328 969 4595 
Q 1241 4863 1831 4863 
L 2375 4863 
z
" transform="scale(0.015625)"/>
       <path id="DejaVuSans-6f" d="M 1959 3097 
Q 1497 3097 1228 2736 
Q 959 2375 959 1747 
Q 959 1119 1226 758 
Q 1494 397 1959 397 
Q 2419 397 2687 759 
Q 2956 1122 2956 1747 
Q 2956 2369 2687 2733 
Q 2419 3097 1959 3097 
z
M 1959 3584 
Q 2709 3584 3137 3096 
Q 3566 2609 3566 1747 
Q 3566 888 3137 398 
Q 2709 -91 1959 -91 
Q 1206 -91 779 398 
Q 353 888 353 1747 
Q 353 2609 779 3096 
Q 1206 3584 1959 3584 
z
" transform="scale(0.015625)"/>
       <path id="DejaVuSans-6d" d="M 3328 2828 
Q 3544 3216 3844 3400 
Q 4144 3584 4550 3584 
Q 5097 3584 5394 3201 
Q 5691 2819 5691 2113 
L 5691 0 
L 5113 0 
L 5113 2094 
Q 5113 2597 4934 2840 
Q 4756 3084 4391 3084 
Q 3944 3084 3684 2787 
Q 3425 2491 3425 1978 
L 3425 0 
L 2847 0 
L 2847 2094 
Q 2847 2600 2669 2842 
Q 2491 3084 2119 3084 
Q 1678 3084 1418 2786 
Q 1159 2488 1159 1978 
L 1159 0 
L 581 0 
L 581 3500 
L 1159 3500 
L 1159 2956 
Q 1356 3278 1631 3431 
Q 1906 3584 2284 3584 
Q 2666 3584 2933 3390 
Q 3200 3197 3328 2828 
z
" transform="scale(0.015625)"/>
       <path id="DejaVuSans-61" d="M 2194 1759 
Q 1497 1759 1228 1600 
Q 959 1441 959 1056 
Q 959 750 1161 570 
Q 1363 391 1709 391 
Q 2188 391 2477 730 
Q 2766 1069 2766 1631 
L 2766 1759 
L 2194 1759 
z
M 3341 1997 
L 3341 0 
L 2766 0 
L 2766 531 
Q 2569 213 2275 61 
Q 1981 -91 1556 -91 
Q 1019 -91 701 211 
Q 384 513 384 1019 
Q 384 1609 779 1909 
Q 1175 2209 1959 2209 
L 2766 2209 
L 2766 2266 
Q 2766 2663 2505 2880 
Q 2244 3097 1772 3097 
Q 1472 3097 1187 3025 
Q 903 2953 641 2809 
L 641 3341 
Q 956 3463 1253 3523 
Q 1550 3584 1831 3584 
Q 2591 3584 2966 3190 
Q 3341 2797 3341 1997 
z
" transform="scale(0.015625)"/>
       <path id="DejaVuSans-6e" d="M 3513 2113 
L 3513 0 
L 2938 0 
L 2938 2094 
Q 2938 2591 2744 2837 
Q 2550 3084 2163 3084 
Q 1697 3084 1428 2787 
Q 1159 2491 1159 1978 
L 1159 0 
L 581 0 
L 581 3500 
L 1159 3500 
L 1159 2956 
Q 1366 3272 1645 3428 
Q 1925 3584 2291 3584 
Q 2894 3584 3203 3211 
Q 3513 2838 3513 2113 
z
" transform="scale(0.015625)"/>
       <path id="DejaVuSans-63" d="M 3122 3366 
L 3122 2828 
Q 2878 2963 2633 3030 
Q 2388 3097 2138 3097 
Q 1578 3097 1268 2742 
Q 959 2388 959 1747 
Q 959 1106 1268 751 
Q 1578 397 2138 397 
Q 2388 397 2633 464 
Q 2878 531 3122 666 
L 3122 134 
Q 2881 22 2623 -34 
Q 2366 -91 2075 -91 
Q 1284 -91 818 406 
Q 353 903 353 1747 
Q 353 2603 823 3093 
Q 1294 3584 2113 3584 
Q 2378 3584 2631 3529 
Q 2884 3475 3122 3366 
z
" transform="scale(0.015625)"/>
       <path id="DejaVuSans-20" transform="scale(0.015625)"/>
       <path id="DejaVuSans-74" d="M 1172 4494 
L 1172 3500 
L 2356 3500 
L 2356 3053 
L 1172 3053 
L 1172 1153 
Q 1172 725 1289 603 
Q 1406 481 1766 481 
L 2356 481 
L 2356 0 
L 1766 0 
Q 1100 0 847 248 
Q 594 497 594 1153 
L 594 3053 
L 172 3053 
L 172 3500 
L 594 3500 
L 594 4494 
L 1172 4494 
z
" transform="scale(0.015625)"/>
       <path id="DejaVuSans-69" d="M 603 3500 
L 1178 3500 
L 1178 0 
L 603 0 
L 603 3500 
z
M 603 4863 
L 1178 4863 
L 1178 4134 
L 603 4134 
L 603 4863 
z
" transform="scale(0.015625)"/>
       <path id="Cmmi10-bf" d="M 997 97 
Q 997 141 1006 166 
L 1678 2363 
L 1100 2363 
Q 866 2363 662 2216 
Q 459 2069 325 1844 
Q 313 1819 288 1819 
L 213 1819 
Q 153 1819 153 1881 
Q 153 1894 166 1919 
Q 375 2275 614 2517 
Q 853 2759 1153 2759 
L 3116 2759 
Q 3184 2759 3231 2712 
Q 3278 2666 3278 2597 
Q 3278 2503 3211 2433 
Q 3144 2363 3047 2363 
L 1888 2363 
L 1459 153 
Q 1434 50 1365 -17 
Q 1297 -84 1191 -84 
Q 1109 -84 1053 -32 
Q 997 19 997 97 
z
" transform="scale(0.015625)"/>
      </defs>
      <use xlink:href="#DejaVuSans-50" transform="translate(0 0.015625)"/>
      <use xlink:href="#DejaVuSans-65" transform="translate(60.302734 0.015625)"/>
      <use xlink:href="#DejaVuSans-72" transform="translate(121.826172 0.015625)"/>
      <use xlink:href="#DejaVuSans-66" transform="translate(162.939453 0.015625)"/>
      <use xlink:href="#DejaVuSans-6f" transform="translate(198.144531 0.015625)"/>
      <use xlink:href="#DejaVuSans-72" transform="translate(259.326172 0.015625)"/>
      <use xlink:href="#DejaVuSans-6d" transform="translate(300.439453 0.015625)"/>
      <use xlink:href="#DejaVuSans-61" transform="translate(397.851562 0.015625)"/>
      <use xlink:href="#DejaVuSans-6e" transform="translate(459.130859 0.015625)"/>
      <use xlink:href="#DejaVuSans-63" transform="translate(522.509766 0.015625)"/>
      <use xlink:href="#DejaVuSans-65" transform="translate(577.490234 0.015625)"/>
      <use xlink:href="#DejaVuSans-20" transform="translate(639.013672 0.015625)"/>
      <use xlink:href="#DejaVuSans-72" transform="translate(670.800781 0.015625)"/>
      <use xlink:href="#DejaVuSans-61" transform="translate(711.914062 0.015625)"/>
      <use xlink:href="#DejaVuSans-74" transform="translate(773.193359 0.015625)"/>
      <use xlink:href="#DejaVuSans-69" transform="translate(812.402344 0.015625)"/>
      <use xlink:href="#DejaVuSans-6f" transform="translate(840.185547 0.015625)"/>
      <use xlink:href="#DejaVuSans-20" transform="translate(901.367188 0.015625)"/>
      <use xlink:href="#Cmmi10-bf" transform="translate(933.154297 0.015625)"/>
     </g>
    </g>
   </g>
   <g id="matplotlib.axis_2">
    <g id="ytick_1">
     <g id="line2d_33">
      <path d="M 46.7 234.03 
L 493.2 234.03 
" clip-path="url(#p54bfe9c318)" style="fill: none; stroke: #b0b0b0; stroke-width: 0.8; stroke-linecap: square"/>
     </g>
     <g id="line2d_34">
      <defs>
       <path id="m1f2615e142" d="M 0 0 
L -3.5 0 
" style="stroke: #000000; stroke-width: 0.8"/>
      </defs>
      <g>
       <use xlink:href="#m1f2615e142" x="46.7" y="234.03" style="stroke: #000000; stroke-width: 0.8"/>
      </g>
     </g>
     <g id="text_4">
      <!-- 0.0 -->
      <g transform="translate(23.796875 237.829219) scale(0.1 -0.1)">
       <defs>
        <path id="DejaVuSans-2e" d="M 684 794 
L 1344 794 
L 1344 0 
L 684 0 
L 684 794 
z
" transform="scale(0.015625)"/>
       </defs>
       <use xlink:href="#DejaVuSans-30"/>
       <use xlink:href="#DejaVuSans-2e" x="63.623047"/>
       <use xlink:href="#DejaVuSans-30" x="95.410156"/>
      </g>
     </g>
    </g>
    <g id="ytick_2">
     <g id="line2d_35">
      <path d="M 46.7 191.51 
L 493.2 191.51 
" clip-path="url(#p54bfe9c318)" style="fill: none; stroke: #b0b0b0; stroke-width: 0.8; stroke-linecap: square"/>
     </g>
     <g id="line2d_36">
      <g>
       <use xlink:href="#m1f2615e142" x="46.7" y="191.51" style="stroke: #000000; stroke-width: 0.8"/>
      </g>
     </g>
     <g id="text_5">
      <!-- 0.2 -->
      <g transform="translate(23.796875 195.309219) scale(0.1 -0.1)">
       <defs>
        <path id="DejaVuSans-32" d="M 1228 531 
L 3431 531 
L 3431 0 
L 469 0 
L 469 531 
Q 828 903 1448 1529 
Q 2069 2156 2228 2338 
Q 2531 2678 2651 2914 
Q 2772 3150 2772 3378 
Q 2772 3750 2511 3984 
Q 2250 4219 1831 4219 
Q 1534 4219 1204 4116 
Q 875 4013 500 3803 
L 500 4441 
Q 881 4594 1212 4672 
Q 1544 4750 1819 4750 
Q 2544 4750 2975 4387 
Q 3406 4025 3406 3419 
Q 3406 3131 3298 2873 
Q 3191 2616 2906 2266 
Q 2828 2175 2409 1742 
Q 1991 1309 1228 531 
z
" transform="scale(0.015625)"/>
       </defs>
       <use xlink:href="#DejaVuSans-30"/>
       <use xlink:href="#DejaVuSans-2e" x="63.623047"/>
       <use xlink:href="#DejaVuSans-32" x="95.410156"/>
      </g>
     </g>
    </g>
    <g id="ytick_3">
     <g id="line2d_37">
      <path d="M 46.7 148.99 
L 493.2 148.99 
" clip-path="url(#p54bfe9c318)" style="fill: none; stroke: #b0b0b0; stroke-width: 0.8; stroke-linecap: square"/>
     </g>
     <g id="line2d_38">
      <g>
       <use xlink:href="#m1f2615e142" x="46.7" y="148.99" style="stroke: #000000; stroke-width: 0.8"/>
      </g>
     </g>
     <g id="text_6">
      <!-- 0.4 -->
      <g transform="translate(23.796875 152.789219) scale(0.1 -0.1)">
       <defs>
        <path id="DejaVuSans-34" d="M 2419 4116 
L 825 1625 
L 2419 1625 
L 2419 4116 
z
M 2253 4666 
L 3047 4666 
L 3047 1625 
L 3713 1625 
L 3713 1100 
L 3047 1100 
L 3047 0 
L 2419 0 
L 2419 1100 
L 313 1100 
L 313 1709 
L 2253 4666 
z
" transform="scale(0.015625)"/>
       </defs>
       <use xlink:href="#DejaVuSans-30"/>
       <use xlink:href="#DejaVuSans-2e" x="63.623047"/>
       <use xlink:href="#DejaVuSans-34" x="95.410156"/>
      </g>
     </g>
    </g>
    <g id="ytick_4">
     <g id="line2d_39">
      <path d="M 46.7 106.47 
L 493.2 106.47 
" clip-path="url(#p54bfe9c318)" style="fill: none; stroke: #b0b0b0; stroke-width: 0.8; stroke-linecap: square"/>
     </g>
     <g id="line2d_40">
      <g>
       <use xlink:href="#m1f2615e142" x="46.7" y="106.47" style="stroke: #000000; stroke-width: 0.8"/>
      </g>
     </g>
     <g id="text_7">
      <!-- 0.6 -->
      <g transform="translate(23.796875 110.269219) scale(0.1 -0.1)">
       <defs>
        <path id="DejaVuSans-36" d="M 2113 2584 
Q 1688 2584 1439 2293 
Q 1191 2003 1191 1497 
Q 1191 994 1439 701 
Q 1688 409 2113 409 
Q 2538 409 2786 701 
Q 3034 994 3034 1497 
Q 3034 2003 2786 2293 
Q 2538 2584 2113 2584 
z
M 3366 4563 
L 3366 3988 
Q 3128 4100 2886 4159 
Q 2644 4219 2406 4219 
Q 1781 4219 1451 3797 
Q 1122 3375 1075 2522 
Q 1259 2794 1537 2939 
Q 1816 3084 2150 3084 
Q 2853 3084 3261 2657 
Q 3669 2231 3669 1497 
Q 3669 778 3244 343 
Q 2819 -91 2113 -91 
Q 1303 -91 875 529 
Q 447 1150 447 2328 
Q 447 3434 972 4092 
Q 1497 4750 2381 4750 
Q 2619 4750 2861 4703 
Q 3103 4656 3366 4563 
z
" transform="scale(0.015625)"/>
       </defs>
       <use xlink:href="#DejaVuSans-30"/>
       <use xlink:href="#DejaVuSans-2e" x="63.623047"/>
       <use xlink:href="#DejaVuSans-36" x="95.410156"/>
      </g>
     </g>
    </g>
    <g id="ytick_5">
     <g id="line2d_41">
      <path d="M 46.7 63.95 
L 493.2 63.95 
" clip-path="url(#p54bfe9c318)" style="fill: none; stroke: #b0b0b0; stroke-width: 0.8; stroke-linecap: square"/>
     </g>
     <g id="line2d_42">
      <g>
       <use xlink:href="#m1f2615e142" x="46.7" y="63.95" style="stroke: #000000; stroke-width: 0.8"/>
      </g>
     </g>
     <g id="text_8">
      <!-- 0.8 -->
      <g transform="translate(23.796875 67.749219) scale(0.1 -0.1)">
       <defs>
        <path id="DejaVuSans-38" d="M 2034 2216 
Q 1584 2216 1326 1975 
Q 1069 1734 1069 1313 
Q 1069 891 1326 650 
Q 1584 409 2034 409 
Q 2484 409 2743 651 
Q 3003 894 3003 1313 
Q 3003 1734 2745 1975 
Q 2488 2216 2034 2216 
z
M 1403 2484 
Q 997 2584 770 2862 
Q 544 3141 544 3541 
Q 544 4100 942 4425 
Q 1341 4750 2034 4750 
Q 2731 4750 3128 4425 
Q 3525 4100 3525 3541 
Q 3525 3141 3298 2862 
Q 3072 2584 2669 2484 
Q 3125 2378 3379 2068 
Q 3634 1759 3634 1313 
Q 3634 634 3220 271 
Q 2806 -91 2034 -91 
Q 1263 -91 848 271 
Q 434 634 434 1313 
Q 434 1759 690 2068 
Q 947 2378 1403 2484 
z
M 1172 3481 
Q 1172 3119 1398 2916 
Q 1625 2713 2034 2713 
Q 2441 2713 2670 2916 
Q 2900 3119 2900 3481 
Q 2900 3844 2670 4047 
Q 2441 4250 2034 4250 
Q 1625 4250 1398 4047 
Q 1172 3844 1172 3481 
z
" transform="scale(0.015625)"/>
       </defs>
       <use xlink:href="#DejaVuSans-30"/>
       <use xlink:href="#DejaVuSans-2e" x="63.623047"/>
       <use xlink:href="#DejaVuSans-38" x="95.410156"/>
      </g>
     </g>
    </g>
    <g id="ytick_6">
     <g id="line2d_43">
      <path d="M 46.7 21.43 
L 493.2 21.43 
" clip-path="url(#p54bfe9c318)" style="fill: none; stroke: #b0b0b0; stroke-width: 0.8; stroke-linecap: square"/>
     </g>
     <g id="line2d_44">
      <g>
       <use xlink:href="#m1f2615e142" x="46.7" y="21.43" style="stroke: #000000; stroke-width: 0.8"/>
      </g>
     </g>
     <g id="text_9">
      <!-- 1.0 -->
      <g transform="translate(23.796875 25.229219) scale(0.1 -0.1)">
       <use xlink:href="#DejaVuSans-31"/>
       <use xlink:href="#DejaVuSans-2e" x="63.623047"/>
       <use xlink:href="#DejaVuSans-30" x="95.410156"/>
      </g>
     </g>
    </g>
    <g id="text_10">
     <!-- Proportion of problems solved -->
     <g transform="translate(17.717187 202.6675) rotate(-90) scale(0.1 -0.1)">
      <defs>
       <path id="DejaVuSans-70" d="M 1159 525 
L 1159 -1331 
L 581 -1331 
L 581 3500 
L 1159 3500 
L 1159 2969 
Q 1341 3281 1617 3432 
Q 1894 3584 2278 3584 
Q 2916 3584 3314 3078 
Q 3713 2572 3713 1747 
Q 3713 922 3314 415 
Q 2916 -91 2278 -91 
Q 1894 -91 1617 61 
Q 1341 213 1159 525 
z
M 3116 1747 
Q 3116 2381 2855 2742 
Q 2594 3103 2138 3103 
Q 1681 3103 1420 2742 
Q 1159 2381 1159 1747 
Q 1159 1113 1420 752 
Q 1681 391 2138 391 
Q 2594 391 2855 752 
Q 3116 1113 3116 1747 
z
" transform="scale(0.015625)"/>
       <path id="DejaVuSans-62" d="M 3116 1747 
Q 3116 2381 2855 2742 
Q 2594 3103 2138 3103 
Q 1681 3103 1420 2742 
Q 1159 2381 1159 1747 
Q 1159 1113 1420 752 
Q 1681 391 2138 391 
Q 2594 391 2855 752 
Q 3116 1113 3116 1747 
z
M 1159 2969 
Q 1341 3281 1617 3432 
Q 1894 3584 2278 3584 
Q 2916 3584 3314 3078 
Q 3713 2572 3713 1747 
Q 3713 922 3314 415 
Q 2916 -91 2278 -91 
Q 1894 -91 1617 61 
Q 1341 213 1159 525 
L 1159 0 
L 581 0 
L 581 4863 
L 1159 4863 
L 1159 2969 
z
" transform="scale(0.015625)"/>
       <path id="DejaVuSans-6c" d="M 603 4863 
L 1178 4863 
L 1178 0 
L 603 0 
L 603 4863 
z
" transform="scale(0.015625)"/>
       <path id="DejaVuSans-73" d="M 2834 3397 
L 2834 2853 
Q 2591 2978 2328 3040 
Q 2066 3103 1784 3103 
Q 1356 3103 1142 2972 
Q 928 2841 928 2578 
Q 928 2378 1081 2264 
Q 1234 2150 1697 2047 
L 1894 2003 
Q 2506 1872 2764 1633 
Q 3022 1394 3022 966 
Q 3022 478 2636 193 
Q 2250 -91 1575 -91 
Q 1294 -91 989 -36 
Q 684 19 347 128 
L 347 722 
Q 666 556 975 473 
Q 1284 391 1588 391 
Q 1994 391 2212 530 
Q 2431 669 2431 922 
Q 2431 1156 2273 1281 
Q 2116 1406 1581 1522 
L 1381 1569 
Q 847 1681 609 1914 
Q 372 2147 372 2553 
Q 372 3047 722 3315 
Q 1072 3584 1716 3584 
Q 2034 3584 2315 3537 
Q 2597 3491 2834 3397 
z
" transform="scale(0.015625)"/>
       <path id="DejaVuSans-76" d="M 191 3500 
L 800 3500 
L 1894 563 
L 2988 3500 
L 3597 3500 
L 2284 0 
L 1503 0 
L 191 3500 
z
" transform="scale(0.015625)"/>
       <path id="DejaVuSans-64" d="M 2906 2969 
L 2906 4863 
L 3481 4863 
L 3481 0 
L 2906 0 
L 2906 525 
Q 2725 213 2448 61 
Q 2172 -91 1784 -91 
Q 1150 -91 751 415 
Q 353 922 353 1747 
Q 353 2572 751 3078 
Q 1150 3584 1784 3584 
Q 2172 3584 2448 3432 
Q 2725 3281 2906 2969 
z
M 947 1747 
Q 947 1113 1208 752 
Q 1469 391 1925 391 
Q 2381 391 2643 752 
Q 2906 1113 2906 1747 
Q 2906 2381 2643 2742 
Q 2381 3103 1925 3103 
Q 1469 3103 1208 2742 
Q 947 2381 947 1747 
z
" transform="scale(0.015625)"/>
      </defs>
      <use xlink:href="#DejaVuSans-50"/>
      <use xlink:href="#DejaVuSans-72" x="58.552734"/>
      <use xlink:href="#DejaVuSans-6f" x="97.416016"/>
      <use xlink:href="#DejaVuSans-70" x="158.597656"/>
      <use xlink:href="#DejaVuSans-6f" x="222.074219"/>
      <use xlink:href="#DejaVuSans-72" x="283.255859"/>
      <use xlink:href="#DejaVuSans-74" x="324.369141"/>
      <use xlink:href="#DejaVuSans-69" x="363.578125"/>
      <use xlink:href="#DejaVuSans-6f" x="391.361328"/>
      <use xlink:href="#DejaVuSans-6e" x="452.542969"/>
      <use xlink:href="#DejaVuSans-20" x="515.921875"/>
      <use xlink:href="#DejaVuSans-6f" x="547.708984"/>
      <use xlink:href="#DejaVuSans-66" x="608.890625"/>
      <use xlink:href="#DejaVuSans-20" x="644.095703"/>
      <use xlink:href="#DejaVuSans-70" x="675.882812"/>
      <use xlink:href="#DejaVuSans-72" x="739.359375"/>
      <use xlink:href="#DejaVuSans-6f" x="778.222656"/>
      <use xlink:href="#DejaVuSans-62" x="839.404297"/>
      <use xlink:href="#DejaVuSans-6c" x="902.880859"/>
      <use xlink:href="#DejaVuSans-65" x="930.664062"/>
      <use xlink:href="#DejaVuSans-6d" x="992.1875"/>
      <use xlink:href="#DejaVuSans-73" x="1089.599609"/>
      <use xlink:href="#DejaVuSans-20" x="1141.699219"/>
      <use xlink:href="#DejaVuSans-73" x="1173.486328"/>
      <use xlink:href="#DejaVuSans-6f" x="1225.585938"/>
      <use xlink:href="#DejaVuSans-6c" x="1286.767578"/>
      <use xlink:href="#DejaVuSans-76" x="1314.550781"/>
      <use xlink:href="#DejaVuSans-65" x="1373.730469"/>
      <use xlink:href="#DejaVuSans-64" x="1435.253906"/>
     </g>
    </g>
   </g>
   <g id="line2d_45">
    <path d="M 66.995455 234.03 
L 174.561364 234.03 
L 174.561364 229.778 
L 202.975 229.778 
L 202.975 225.526 
L 231.388636 225.526 
L 231.388636 221.274 
L 288.215909 221.274 
L 288.215909 217.022 
L 294.304545 217.022 
L 294.304545 212.77 
L 300.393182 212.77 
L 300.393182 204.266 
L 302.422727 204.266 
L 302.422727 200.014 
L 304.452273 200.014 
L 304.452273 191.51 
L 306.481818 191.51 
L 306.481818 187.258 
L 308.511364 187.258 
L 308.511364 183.006 
L 314.6 183.006 
L 314.6 174.502 
L 320.688636 174.502 
L 320.688636 170.25 
L 322.718182 170.25 
L 322.718182 161.746 
L 324.747727 161.746 
L 324.747727 148.99 
L 326.777273 148.99 
L 326.777273 131.982 
L 328.806818 131.982 
L 328.806818 119.226 
L 330.836364 119.226 
L 330.836364 114.974 
L 334.895455 114.974 
L 334.895455 102.218 
L 336.925 102.218 
L 336.925 97.966 
L 338.954545 97.966 
L 338.954545 93.714 
L 340.984091 93.714 
L 340.984091 89.462 
L 345.043182 89.462 
L 345.043182 85.21 
L 351.131818 85.21 
L 351.131818 76.706 
L 353.161364 76.706 
L 353.161364 63.95 
L 357.220455 63.95 
L 357.220455 51.194 
L 359.25 51.194 
L 359.25 46.942 
L 361.279545 46.942 
L 361.279545 38.438 
L 365.338636 38.438 
L 365.338636 34.186 
L 367.368182 34.186 
L 367.368182 29.934 
L 373.456818 29.934 
L 373.456818 25.682 
L 381.575 25.682 
L 381.575 21.43 
L 472.904545 21.43 
L 472.904545 21.43 
" clip-path="url(#p54bfe9c318)" style="fill: none; stroke: #ff7f0e; stroke-width: 1.5; stroke-linecap: square"/>
   </g>
   <g id="line2d_46">
    <path d="M 66.995455 195.762 
L 66.995455 187.258 
L 69.025 187.258 
L 69.025 183.006 
L 75.113636 183.006 
L 75.113636 174.502 
L 79.172727 174.502 
L 79.172727 170.25 
L 81.202273 170.25 
L 81.202273 165.998 
L 83.231818 165.998 
L 83.231818 157.494 
L 85.261364 157.494 
L 85.261364 153.242 
L 87.290909 153.242 
L 87.290909 140.486 
L 89.320455 140.486 
L 89.320455 136.234 
L 91.35 136.234 
L 91.35 123.478 
L 97.438636 123.478 
L 97.438636 106.47 
L 99.468182 106.47 
L 99.468182 102.218 
L 105.556818 102.218 
L 105.556818 97.966 
L 111.645455 97.966 
L 111.645455 93.714 
L 150.206818 93.714 
L 150.206818 89.462 
L 178.620455 89.462 
L 178.620455 85.21 
L 184.709091 85.21 
L 184.709091 80.958 
L 194.856818 80.958 
L 194.856818 76.706 
L 213.122727 76.706 
L 213.122727 72.454 
L 217.181818 72.454 
L 217.181818 68.202 
L 284.156818 68.202 
L 284.156818 63.95 
L 310.540909 63.95 
L 310.540909 59.698 
L 312.570455 59.698 
L 312.570455 55.446 
L 328.806818 55.446 
L 328.806818 51.194 
L 332.865909 51.194 
L 332.865909 46.942 
L 355.190909 46.942 
L 355.190909 42.69 
L 359.25 42.69 
L 359.25 38.438 
L 375.486364 38.438 
L 375.486364 34.186 
L 389.693182 34.186 
L 389.693182 29.934 
L 403.9 29.934 
L 403.9 25.682 
L 412.018182 25.682 
L 412.018182 21.43 
L 472.904545 21.43 
L 472.904545 21.43 
" clip-path="url(#p54bfe9c318)" style="fill: none; stroke: #2ca02c; stroke-width: 1.5; stroke-linecap: square"/>
   </g>
   <g id="line2d_47">
    <path d="M 66.995455 221.274 
L 66.995455 212.77 
L 69.025 212.77 
L 69.025 208.518 
L 71.054545 208.518 
L 71.054545 195.762 
L 73.084091 195.762 
L 73.084091 187.258 
L 75.113636 187.258 
L 75.113636 183.006 
L 77.143182 183.006 
L 77.143182 174.502 
L 81.202273 174.502 
L 81.202273 161.746 
L 87.290909 161.746 
L 87.290909 157.494 
L 89.320455 157.494 
L 89.320455 148.99 
L 91.35 148.99 
L 91.35 144.738 
L 95.409091 144.738 
L 95.409091 140.486 
L 97.438636 140.486 
L 97.438636 123.478 
L 99.468182 123.478 
L 99.468182 119.226 
L 101.497727 119.226 
L 101.497727 114.974 
L 105.556818 114.974 
L 105.556818 110.722 
L 109.615909 110.722 
L 109.615909 106.47 
L 111.645455 106.47 
L 111.645455 102.218 
L 117.734091 102.218 
L 117.734091 97.966 
L 125.852273 97.966 
L 125.852273 93.714 
L 136 93.714 
L 136 89.462 
L 140.059091 89.462 
L 140.059091 85.21 
L 196.886364 85.21 
L 196.886364 80.958 
L 215.152273 80.958 
L 215.152273 76.706 
L 251.684091 76.706 
L 251.684091 72.454 
L 257.772727 72.454 
L 257.772727 63.95 
L 288.215909 63.95 
L 288.215909 59.698 
L 294.304545 59.698 
L 294.304545 55.446 
L 324.747727 55.446 
L 324.747727 51.194 
L 369.397727 51.194 
L 369.397727 46.942 
L 385.634091 46.942 
L 385.634091 42.69 
L 387.663636 42.69 
L 387.663636 38.438 
L 391.722727 38.438 
L 391.722727 34.186 
L 395.781818 34.186 
L 395.781818 29.934 
L 399.840909 29.934 
L 399.840909 21.43 
L 472.904545 21.43 
L 472.904545 21.43 
" clip-path="url(#p54bfe9c318)" style="fill: none; stroke: #d62728; stroke-width: 1.5; stroke-linecap: square"/>
   </g>
   <g id="line2d_48">
    <path d="M 66.995455 234.03 
L 138.029545 234.03 
L 138.029545 229.778 
L 140.059091 229.778 
L 140.059091 225.526 
L 200.945455 225.526 
L 200.945455 221.274 
L 239.506818 221.274 
L 239.506818 217.022 
L 304.452273 217.022 
L 304.452273 212.77 
L 312.570455 212.77 
L 312.570455 208.518 
L 314.6 208.518 
L 314.6 204.266 
L 324.747727 204.266 
L 324.747727 200.014 
L 326.777273 200.014 
L 326.777273 195.762 
L 328.806818 195.762 
L 328.806818 187.258 
L 330.836364 187.258 
L 330.836364 183.006 
L 336.925 183.006 
L 336.925 170.25 
L 340.984091 170.25 
L 340.984091 165.998 
L 345.043182 165.998 
L 345.043182 157.494 
L 347.072727 157.494 
L 347.072727 153.242 
L 349.102273 153.242 
L 349.102273 148.99 
L 351.131818 148.99 
L 351.131818 144.738 
L 353.161364 144.738 
L 353.161364 140.486 
L 357.220455 140.486 
L 357.220455 127.73 
L 359.25 127.73 
L 359.25 119.226 
L 361.279545 119.226 
L 361.279545 106.47 
L 363.309091 106.47 
L 363.309091 102.218 
L 365.338636 102.218 
L 365.338636 97.966 
L 367.368182 97.966 
L 367.368182 89.462 
L 369.397727 89.462 
L 369.397727 85.21 
L 371.427273 85.21 
L 371.427273 80.958 
L 373.456818 80.958 
L 373.456818 76.706 
L 375.486364 76.706 
L 375.486364 72.454 
L 377.515909 72.454 
L 377.515909 63.95 
L 379.545455 63.95 
L 379.545455 59.698 
L 391.722727 59.698 
L 391.722727 55.446 
L 393.752273 55.446 
L 393.752273 46.942 
L 395.781818 46.942 
L 395.781818 42.69 
L 397.811364 42.69 
L 397.811364 38.438 
L 436.372727 38.438 
L 436.372727 34.186 
L 460.727273 34.186 
L 460.727273 29.934 
L 468.845455 29.934 
L 468.845455 25.682 
L 472.904545 25.682 
L 472.904545 25.682 
" clip-path="url(#p54bfe9c318)" style="fill: none; stroke: #9467bd; stroke-width: 1.5; stroke-linecap: square"/>
   </g>
   <g id="line2d_49">
    <path d="M 66.995455 234.03 
L 125.852273 234.03 
L 125.852273 229.778 
L 127.881818 229.778 
L 127.881818 225.526 
L 129.911364 225.526 
L 129.911364 221.274 
L 131.940909 221.274 
L 131.940909 217.022 
L 138.029545 217.022 
L 138.029545 204.266 
L 146.147727 204.266 
L 146.147727 195.762 
L 154.265909 195.762 
L 154.265909 191.51 
L 156.295455 191.51 
L 156.295455 187.258 
L 158.325 187.258 
L 158.325 183.006 
L 168.472727 183.006 
L 168.472727 178.754 
L 174.561364 178.754 
L 174.561364 174.502 
L 180.65 174.502 
L 180.65 170.25 
L 182.679545 170.25 
L 182.679545 161.746 
L 186.738636 161.746 
L 186.738636 157.494 
L 198.915909 157.494 
L 198.915909 153.242 
L 200.945455 153.242 
L 200.945455 144.738 
L 205.004545 144.738 
L 205.004545 140.486 
L 209.063636 140.486 
L 209.063636 131.982 
L 213.122727 131.982 
L 213.122727 127.73 
L 215.152273 127.73 
L 215.152273 123.478 
L 217.181818 123.478 
L 217.181818 119.226 
L 233.418182 119.226 
L 233.418182 114.974 
L 243.565909 114.974 
L 243.565909 110.722 
L 282.127273 110.722 
L 282.127273 106.47 
L 288.215909 106.47 
L 288.215909 102.218 
L 306.481818 102.218 
L 306.481818 97.966 
L 320.688636 97.966 
L 320.688636 93.714 
L 322.718182 93.714 
L 322.718182 89.462 
L 324.747727 89.462 
L 324.747727 85.21 
L 349.102273 85.21 
L 349.102273 80.958 
L 355.190909 80.958 
L 355.190909 76.706 
L 359.25 76.706 
L 359.25 72.454 
L 363.309091 72.454 
L 363.309091 68.202 
L 367.368182 68.202 
L 367.368182 63.95 
L 371.427273 63.95 
L 371.427273 59.698 
L 373.456818 59.698 
L 373.456818 55.446 
L 377.515909 55.446 
L 377.515909 51.194 
L 385.634091 51.194 
L 385.634091 46.942 
L 405.929545 46.942 
L 405.929545 42.69 
L 407.959091 42.69 
L 407.959091 38.438 
L 412.018182 38.438 
L 412.018182 34.186 
L 416.077273 34.186 
L 416.077273 29.934 
L 442.461364 29.934 
L 442.461364 25.682 
L 472.904545 25.682 
L 472.904545 25.682 
" clip-path="url(#p54bfe9c318)" style="fill: none; stroke: #8c564b; stroke-width: 1.5; stroke-linecap: square"/>
   </g>
   <g id="line2d_50">
    <path d="M 66.995455 140.486 
L 66.995455 131.982 
L 69.025 131.982 
L 69.025 119.226 
L 71.054545 119.226 
L 71.054545 114.974 
L 73.084091 114.974 
L 73.084091 110.722 
L 75.113636 110.722 
L 75.113636 102.218 
L 81.202273 102.218 
L 81.202273 97.966 
L 83.231818 97.966 
L 83.231818 93.714 
L 87.290909 93.714 
L 87.290909 85.21 
L 89.320455 85.21 
L 89.320455 80.958 
L 95.409091 80.958 
L 95.409091 76.706 
L 99.468182 76.706 
L 99.468182 72.454 
L 101.497727 72.454 
L 101.497727 68.202 
L 123.822727 68.202 
L 123.822727 63.95 
L 170.502273 63.95 
L 170.502273 59.698 
L 180.65 59.698 
L 180.65 51.194 
L 205.004545 51.194 
L 205.004545 46.942 
L 241.536364 46.942 
L 241.536364 42.69 
L 251.684091 42.69 
L 251.684091 38.438 
L 259.802273 38.438 
L 259.802273 29.934 
L 274.009091 29.934 
L 274.009091 25.682 
L 322.718182 25.682 
L 322.718182 21.43 
L 472.904545 21.43 
L 472.904545 21.43 
" clip-path="url(#p54bfe9c318)" style="fill: none; stroke: #e377c2; stroke-width: 1.5; stroke-linecap: square"/>
   </g>
   <g id="line2d_51">
    <path d="M 66.995455 165.998 
L 66.995455 153.242 
L 69.025 153.242 
L 69.025 136.234 
L 71.054545 136.234 
L 71.054545 123.478 
L 73.084091 123.478 
L 73.084091 110.722 
L 77.143182 110.722 
L 77.143182 85.21 
L 79.172727 85.21 
L 79.172727 76.706 
L 83.231818 76.706 
L 83.231818 68.202 
L 85.261364 68.202 
L 85.261364 63.95 
L 89.320455 63.95 
L 89.320455 59.698 
L 91.35 59.698 
L 91.35 55.446 
L 95.409091 55.446 
L 95.409091 51.194 
L 97.438636 51.194 
L 97.438636 46.942 
L 99.468182 46.942 
L 99.468182 42.69 
L 105.556818 42.69 
L 105.556818 38.438 
L 109.615909 38.438 
L 109.615909 29.934 
L 113.675 29.934 
L 113.675 25.682 
L 119.763636 25.682 
L 119.763636 21.43 
L 472.904545 21.43 
L 472.904545 21.43 
" clip-path="url(#p54bfe9c318)" style="fill: none; stroke: #7f7f7f; stroke-width: 1.5; stroke-linecap: square"/>
   </g>
   <g id="patch_3">
    <path d="M 46.7 244.66 
L 46.7 10.8 
" style="fill: none; stroke: #000000; stroke-width: 0.8; stroke-linejoin: miter; stroke-linecap: square"/>
   </g>
   <g id="patch_4">
    <path d="M 493.2 244.66 
L 493.2 10.8 
" style="fill: none; stroke: #000000; stroke-width: 0.8; stroke-linejoin: miter; stroke-linecap: square"/>
   </g>
   <g id="patch_5">
    <path d="M 46.7 244.66 
L 493.2 244.66 
" style="fill: none; stroke: #000000; stroke-width: 0.8; stroke-linejoin: miter; stroke-linecap: square"/>
   </g>
   <g id="patch_6">
    <path d="M 46.7 10.8 
L 493.2 10.8 
" style="fill: none; stroke: #000000; stroke-width: 0.8; stroke-linejoin: miter; stroke-linecap: square"/>
   </g>
   <g id="legend_1">
    <g id="patch_7">
     <path d="M 419.89875 240.66 
L 487.6 240.66 
Q 489.2 240.66 489.2 239.06 
L 489.2 157.6625 
Q 489.2 156.0625 487.6 156.0625 
L 419.89875 156.0625 
Q 418.29875 156.0625 418.29875 157.6625 
L 418.29875 239.06 
Q 418.29875 240.66 419.89875 240.66 
z
" style="fill: #ffffff; opacity: 0.8; stroke: #cccccc; stroke-linejoin: miter"/>
    </g>
    <g id="line2d_52">
     <path d="M 421.49875 162.54125 
L 421.49875 162.54125 
L 429.49875 162.54125 
L 429.49875 162.54125 
L 437.49875 162.54125 
" style="fill: none; stroke: #ff7f0e; stroke-width: 1.5; stroke-linecap: square"/>
    </g>
    <g id="text_11">
     <!-- Ipopt:1 -->
     <g transform="translate(443.89875 165.34125) scale(0.08 -0.08)">
      <defs>
       <path id="DejaVuSans-49" d="M 628 4666 
L 1259 4666 
L 1259 0 
L 628 0 
L 628 4666 
z
" transform="scale(0.015625)"/>
       <path id="DejaVuSans-3a" d="M 750 794 
L 1409 794 
L 1409 0 
L 750 0 
L 750 794 
z
M 750 3309 
L 1409 3309 
L 1409 2516 
L 750 2516 
L 750 3309 
z
" transform="scale(0.015625)"/>
      </defs>
      <use xlink:href="#DejaVuSans-49"/>
      <use xlink:href="#DejaVuSans-70" x="29.492188"/>
      <use xlink:href="#DejaVuSans-6f" x="92.96875"/>
      <use xlink:href="#DejaVuSans-70" x="154.150391"/>
      <use xlink:href="#DejaVuSans-74" x="217.626953"/>
      <use xlink:href="#DejaVuSans-3a" x="256.835938"/>
      <use xlink:href="#DejaVuSans-31" x="290.527344"/>
     </g>
    </g>
    <g id="line2d_53">
     <path d="M 421.49875 174.28375 
L 421.49875 174.28375 
L 429.49875 174.28375 
L 429.49875 174.28375 
L 437.49875 174.28375 
" style="fill: none; stroke: #2ca02c; stroke-width: 1.5; stroke-linecap: square"/>
    </g>
    <g id="text_12">
     <!-- ProxDDP:0 -->
     <g transform="translate(443.89875 177.08375) scale(0.08 -0.08)">
      <defs>
       <path id="DejaVuSans-78" d="M 3513 3500 
L 2247 1797 
L 3578 0 
L 2900 0 
L 1881 1375 
L 863 0 
L 184 0 
L 1544 1831 
L 300 3500 
L 978 3500 
L 1906 2253 
L 2834 3500 
L 3513 3500 
z
" transform="scale(0.015625)"/>
       <path id="DejaVuSans-44" d="M 1259 4147 
L 1259 519 
L 2022 519 
Q 2988 519 3436 956 
Q 3884 1394 3884 2338 
Q 3884 3275 3436 3711 
Q 2988 4147 2022 4147 
L 1259 4147 
z
M 628 4666 
L 1925 4666 
Q 3281 4666 3915 4102 
Q 4550 3538 4550 2338 
Q 4550 1131 3912 565 
Q 3275 0 1925 0 
L 628 0 
L 628 4666 
z
" transform="scale(0.015625)"/>
      </defs>
      <use xlink:href="#DejaVuSans-50"/>
      <use xlink:href="#DejaVuSans-72" x="58.552734"/>
      <use xlink:href="#DejaVuSans-6f" x="97.416016"/>
      <use xlink:href="#DejaVuSans-78" x="155.472656"/>
      <use xlink:href="#DejaVuSans-44" x="214.652344"/>
      <use xlink:href="#DejaVuSans-44" x="291.654297"/>
      <use xlink:href="#DejaVuSans-50" x="368.65625"/>
      <use xlink:href="#DejaVuSans-3a" x="428.958984"/>
      <use xlink:href="#DejaVuSans-30" x="462.650391"/>
     </g>
    </g>
    <g id="line2d_54">
     <path d="M 421.49875 186.02625 
L 421.49875 186.02625 
L 429.49875 186.02625 
L 429.49875 186.02625 
L 437.49875 186.02625 
" style="fill: none; stroke: #d62728; stroke-width: 1.5; stroke-linecap: square"/>
    </g>
    <g id="text_13">
     <!-- ProxDDP:1 -->
     <g transform="translate(443.89875 188.82625) scale(0.08 -0.08)">
      <use xlink:href="#DejaVuSans-50"/>
      <use xlink:href="#DejaVuSans-72" x="58.552734"/>
      <use xlink:href="#DejaVuSans-6f" x="97.416016"/>
      <use xlink:href="#DejaVuSans-78" x="155.472656"/>
      <use xlink:href="#DejaVuSans-44" x="214.652344"/>
      <use xlink:href="#DejaVuSans-44" x="291.654297"/>
      <use xlink:href="#DejaVuSans-50" x="368.65625"/>
      <use xlink:href="#DejaVuSans-3a" x="428.958984"/>
      <use xlink:href="#DejaVuSans-31" x="462.650391"/>
     </g>
    </g>
    <g id="line2d_55">
     <path d="M 421.49875 197.76875 
L 421.49875 197.76875 
L 429.49875 197.76875 
L 429.49875 197.76875 
L 437.49875 197.76875 
" style="fill: none; stroke: #9467bd; stroke-width: 1.5; stroke-linecap: square"/>
    </g>
    <g id="text_14">
     <!-- ProxDDP:2 -->
     <g transform="translate(443.89875 200.56875) scale(0.08 -0.08)">
      <use xlink:href="#DejaVuSans-50"/>
      <use xlink:href="#DejaVuSans-72" x="58.552734"/>
      <use xlink:href="#DejaVuSans-6f" x="97.416016"/>
      <use xlink:href="#DejaVuSans-78" x="155.472656"/>
      <use xlink:href="#DejaVuSans-44" x="214.652344"/>
      <use xlink:href="#DejaVuSans-44" x="291.654297"/>
      <use xlink:href="#DejaVuSans-50" x="368.65625"/>
      <use xlink:href="#DejaVuSans-3a" x="428.958984"/>
      <use xlink:href="#DejaVuSans-32" x="462.650391"/>
     </g>
    </g>
    <g id="line2d_56">
     <path d="M 421.49875 209.51125 
L 421.49875 209.51125 
L 429.49875 209.51125 
L 429.49875 209.51125 
L 437.49875 209.51125 
" style="fill: none; stroke: #8c564b; stroke-width: 1.5; stroke-linecap: square"/>
    </g>
    <g id="text_15">
     <!-- ProxDDP:3 -->
     <g transform="translate(443.89875 212.31125) scale(0.08 -0.08)">
      <defs>
       <path id="DejaVuSans-33" d="M 2597 2516 
Q 3050 2419 3304 2112 
Q 3559 1806 3559 1356 
Q 3559 666 3084 287 
Q 2609 -91 1734 -91 
Q 1441 -91 1130 -33 
Q 819 25 488 141 
L 488 750 
Q 750 597 1062 519 
Q 1375 441 1716 441 
Q 2309 441 2620 675 
Q 2931 909 2931 1356 
Q 2931 1769 2642 2001 
Q 2353 2234 1838 2234 
L 1294 2234 
L 1294 2753 
L 1863 2753 
Q 2328 2753 2575 2939 
Q 2822 3125 2822 3475 
Q 2822 3834 2567 4026 
Q 2313 4219 1838 4219 
Q 1578 4219 1281 4162 
Q 984 4106 628 3988 
L 628 4550 
Q 988 4650 1302 4700 
Q 1616 4750 1894 4750 
Q 2613 4750 3031 4423 
Q 3450 4097 3450 3541 
Q 3450 3153 3228 2886 
Q 3006 2619 2597 2516 
z
" transform="scale(0.015625)"/>
      </defs>
      <use xlink:href="#DejaVuSans-50"/>
      <use xlink:href="#DejaVuSans-72" x="58.552734"/>
      <use xlink:href="#DejaVuSans-6f" x="97.416016"/>
      <use xlink:href="#DejaVuSans-78" x="155.472656"/>
      <use xlink:href="#DejaVuSans-44" x="214.652344"/>
      <use xlink:href="#DejaVuSans-44" x="291.654297"/>
      <use xlink:href="#DejaVuSans-50" x="368.65625"/>
      <use xlink:href="#DejaVuSans-3a" x="428.958984"/>
      <use xlink:href="#DejaVuSans-33" x="462.650391"/>
     </g>
    </g>
    <g id="line2d_57">
     <path d="M 421.49875 221.25375 
L 421.49875 221.25375 
L 429.49875 221.25375 
L 429.49875 221.25375 
L 437.49875 221.25375 
" style="fill: none; stroke: #e377c2; stroke-width: 1.5; stroke-linecap: square"/>
    </g>
    <g id="text_16">
     <!-- ProxDDP:4 -->
     <g transform="translate(443.89875 224.05375) scale(0.08 -0.08)">
      <use xlink:href="#DejaVuSans-50"/>
      <use xlink:href="#DejaVuSans-72" x="58.552734"/>
      <use xlink:href="#DejaVuSans-6f" x="97.416016"/>
      <use xlink:href="#DejaVuSans-78" x="155.472656"/>
      <use xlink:href="#DejaVuSans-44" x="214.652344"/>
      <use xlink:href="#DejaVuSans-44" x="291.654297"/>
      <use xlink:href="#DejaVuSans-50" x="368.65625"/>
      <use xlink:href="#DejaVuSans-3a" x="428.958984"/>
      <use xlink:href="#DejaVuSans-34" x="462.650391"/>
     </g>
    </g>
    <g id="line2d_58">
     <path d="M 421.49875 232.99625 
L 421.49875 232.99625 
L 429.49875 232.99625 
L 429.49875 232.99625 
L 437.49875 232.99625 
" style="fill: none; stroke: #7f7f7f; stroke-width: 1.5; stroke-linecap: square"/>
    </g>
    <g id="text_17">
     <!-- ProxDDP:5 -->
     <g transform="translate(443.89875 235.79625) scale(0.08 -0.08)">
      <defs>
       <path id="DejaVuSans-35" d="M 691 4666 
L 3169 4666 
L 3169 4134 
L 1269 4134 
L 1269 2991 
Q 1406 3038 1543 3061 
Q 1681 3084 1819 3084 
Q 2600 3084 3056 2656 
Q 3513 2228 3513 1497 
Q 3513 744 3044 326 
Q 2575 -91 1722 -91 
Q 1428 -91 1123 -41 
Q 819 9 494 109 
L 494 744 
Q 775 591 1075 516 
Q 1375 441 1709 441 
Q 2250 441 2565 725 
Q 2881 1009 2881 1497 
Q 2881 1984 2565 2268 
Q 2250 2553 1709 2553 
Q 1456 2553 1204 2497 
Q 953 2441 691 2322 
L 691 4666 
z
" transform="scale(0.015625)"/>
      </defs>
      <use xlink:href="#DejaVuSans-50"/>
      <use xlink:href="#DejaVuSans-72" x="58.552734"/>
      <use xlink:href="#DejaVuSans-6f" x="97.416016"/>
      <use xlink:href="#DejaVuSans-78" x="155.472656"/>
      <use xlink:href="#DejaVuSans-44" x="214.652344"/>
      <use xlink:href="#DejaVuSans-44" x="291.654297"/>
      <use xlink:href="#DejaVuSans-50" x="368.65625"/>
      <use xlink:href="#DejaVuSans-3a" x="428.958984"/>
      <use xlink:href="#DejaVuSans-35" x="462.650391"/>
     </g>
    </g>
   </g>
  </g>
 </g>
 <defs>
  <clipPath id="p54bfe9c318">
   <rect x="46.7" y="10.8" width="446.5" height="233.86"/>
  </clipPath>
 </defs>
</svg>
