<?xml version="1.0" encoding="utf-8" standalone="no"?>
<!DOCTYPE svg PUBLIC "-//W3C//DTD SVG 1.1//EN"
  "http://www.w3.org/Graphics/SVG/1.1/DTD/svg11.dtd">
<svg xmlns:xlink="http://www.w3.org/1999/xlink" width="504pt" height="288pt" viewBox="0 0 504 288" xmlns="http://www.w3.org/2000/svg" version="1.1">
 <metadata>
  <rdf:RDF xmlns:dc="http://purl.org/dc/elements/1.1/" xmlns:cc="http://creativecommons.org/ns#" xmlns:rdf="http://www.w3.org/1999/02/22-rdf-syntax-ns#">
   <cc:Work>
    <dc:type rdf:resource="http://purl.org/dc/dcmitype/StillImage"/>
    <dc:date>2024-11-05T16:02:16.898229</dc:date>
    <dc:format>image/svg+xml</dc:format>
    <dc:creator>
     <cc:Agent>
      <dc:title>Matplotlib v3.9.1, https://matplotlib.org/</dc:title>
     </cc:Agent>
    </dc:creator>
   </cc:Work>
  </rdf:RDF>
 </metadata>
 <defs>
  <style type="text/css">*{stroke-linejoin: round; stroke-linecap: butt}</style>
 </defs>
 <g id="figure_1">
  <g id="patch_1">
   <path d="M 0 288 
L 504 288 
L 504 0 
L 0 0 
z
" style="fill: #ffffff"/>
  </g>
  <g id="axes_1">
   <g id="patch_2">
    <path d="M 46.7 244.66 
L 493.2 244.66 
L 493.2 10.8 
L 46.7 10.8 
z
" style="fill: #ffffff"/>
   </g>
   <g id="matplotlib.axis_1">
    <g id="xtick_1">
     <g id="line2d_1">
      <path d="M 66.995455 244.66 
L 66.995455 10.8 
" clip-path="url(#p687219d5c2)" style="fill: none; stroke: #b0b0b0; stroke-width: 0.8; stroke-linecap: square"/>
     </g>
     <g id="line2d_2">
      <defs>
       <path id="mbee8fc6894" d="M 0 0 
L 0 3.5 
" style="stroke: #000000; stroke-width: 0.8"/>
      </defs>
      <g>
       <use xlink:href="#mbee8fc6894" x="66.995455" y="244.66" style="stroke: #000000; stroke-width: 0.8"/>
      </g>
     </g>
     <g id="text_1">
      <!-- $\mathdefault{10^{0}}$ -->
      <g transform="translate(58.195455 259.258438) scale(0.1 -0.1)">
       <defs>
        <path id="DejaVuSans-31" d="M 794 531 
L 1825 531 
L 1825 4091 
L 703 3866 
L 703 4441 
L 1819 4666 
L 2450 4666 
L 2450 531 
L 3481 531 
L 3481 0 
L 794 0 
L 794 531 
z
" transform="scale(0.015625)"/>
        <path id="DejaVuSans-30" d="M 2034 4250 
Q 1547 4250 1301 3770 
Q 1056 3291 1056 2328 
Q 1056 1369 1301 889 
Q 1547 409 2034 409 
Q 2525 409 2770 889 
Q 3016 1369 3016 2328 
Q 3016 3291 2770 3770 
Q 2525 4250 2034 4250 
z
M 2034 4750 
Q 2819 4750 3233 4129 
Q 3647 3509 3647 2328 
Q 3647 1150 3233 529 
Q 2819 -91 2034 -91 
Q 1250 -91 836 529 
Q 422 1150 422 2328 
Q 422 3509 836 4129 
Q 1250 4750 2034 4750 
z
" transform="scale(0.015625)"/>
       </defs>
       <use xlink:href="#DejaVuSans-31" transform="translate(0 0.765625)"/>
       <use xlink:href="#DejaVuSans-30" transform="translate(63.623047 0.765625)"/>
       <use xlink:href="#DejaVuSans-30" transform="translate(128.203125 39.046875) scale(0.7)"/>
      </g>
     </g>
    </g>
    <g id="xtick_2">
     <g id="line2d_3">
      <path d="M 256.226458 244.66 
L 256.226458 10.8 
" clip-path="url(#p687219d5c2)" style="fill: none; stroke: #b0b0b0; stroke-width: 0.8; stroke-linecap: square"/>
     </g>
     <g id="line2d_4">
      <g>
       <use xlink:href="#mbee8fc6894" x="256.226458" y="244.66" style="stroke: #000000; stroke-width: 0.8"/>
      </g>
     </g>
     <g id="text_2">
      <!-- $\mathdefault{10^{1}}$ -->
      <g transform="translate(247.426458 259.258438) scale(0.1 -0.1)">
       <use xlink:href="#DejaVuSans-31" transform="translate(0 0.684375)"/>
       <use xlink:href="#DejaVuSans-30" transform="translate(63.623047 0.684375)"/>
       <use xlink:href="#DejaVuSans-31" transform="translate(128.203125 38.965625) scale(0.7)"/>
      </g>
     </g>
    </g>
    <g id="xtick_3">
     <g id="line2d_5">
      <path d="M 445.457461 244.66 
L 445.457461 10.8 
" clip-path="url(#p687219d5c2)" style="fill: none; stroke: #b0b0b0; stroke-width: 0.8; stroke-linecap: square"/>
     </g>
     <g id="line2d_6">
      <g>
       <use xlink:href="#mbee8fc6894" x="445.457461" y="244.66" style="stroke: #000000; stroke-width: 0.8"/>
      </g>
     </g>
     <g id="text_3">
      <!-- $\mathdefault{10^{2}}$ -->
      <g transform="translate(436.657461 259.258438) scale(0.1 -0.1)">
       <defs>
        <path id="DejaVuSans-32" d="M 1228 531 
L 3431 531 
L 3431 0 
L 469 0 
L 469 531 
Q 828 903 1448 1529 
Q 2069 2156 2228 2338 
Q 2531 2678 2651 2914 
Q 2772 3150 2772 3378 
Q 2772 3750 2511 3984 
Q 2250 4219 1831 4219 
Q 1534 4219 1204 4116 
Q 875 4013 500 3803 
L 500 4441 
Q 881 4594 1212 4672 
Q 1544 4750 1819 4750 
Q 2544 4750 2975 4387 
Q 3406 4025 3406 3419 
Q 3406 3131 3298 2873 
Q 3191 2616 2906 2266 
Q 2828 2175 2409 1742 
Q 1991 1309 1228 531 
z
" transform="scale(0.015625)"/>
       </defs>
       <use xlink:href="#DejaVuSans-31" transform="translate(0 0.765625)"/>
       <use xlink:href="#DejaVuSans-30" transform="translate(63.623047 0.765625)"/>
       <use xlink:href="#DejaVuSans-32" transform="translate(128.203125 39.046875) scale(0.7)"/>
      </g>
     </g>
    </g>
    <g id="xtick_4">
     <g id="line2d_7">
      <path d="M 48.657076 244.66 
L 48.657076 10.8 
" clip-path="url(#p687219d5c2)" style="fill: none; stroke: #b0b0b0; stroke-width: 0.8; stroke-linecap: square"/>
     </g>
     <g id="line2d_8">
      <defs>
       <path id="me4d3f03dd1" d="M 0 0 
L 0 2 
" style="stroke: #000000; stroke-width: 0.6"/>
      </defs>
      <g>
       <use xlink:href="#me4d3f03dd1" x="48.657076" y="244.66" style="stroke: #000000; stroke-width: 0.6"/>
      </g>
     </g>
    </g>
    <g id="xtick_5">
     <g id="line2d_9">
      <path d="M 58.336719 244.66 
L 58.336719 10.8 
" clip-path="url(#p687219d5c2)" style="fill: none; stroke: #b0b0b0; stroke-width: 0.8; stroke-linecap: square"/>
     </g>
     <g id="line2d_10">
      <g>
       <use xlink:href="#me4d3f03dd1" x="58.336719" y="244.66" style="stroke: #000000; stroke-width: 0.6"/>
      </g>
     </g>
    </g>
    <g id="xtick_6">
     <g id="line2d_11">
      <path d="M 123.959663 244.66 
L 123.959663 10.8 
" clip-path="url(#p687219d5c2)" style="fill: none; stroke: #b0b0b0; stroke-width: 0.8; stroke-linecap: square"/>
     </g>
     <g id="line2d_12">
      <g>
       <use xlink:href="#me4d3f03dd1" x="123.959663" y="244.66" style="stroke: #000000; stroke-width: 0.6"/>
      </g>
     </g>
    </g>
    <g id="xtick_7">
     <g id="line2d_13">
      <path d="M 157.281588 244.66 
L 157.281588 10.8 
" clip-path="url(#p687219d5c2)" style="fill: none; stroke: #b0b0b0; stroke-width: 0.8; stroke-linecap: square"/>
     </g>
     <g id="line2d_14">
      <g>
       <use xlink:href="#me4d3f03dd1" x="157.281588" y="244.66" style="stroke: #000000; stroke-width: 0.6"/>
      </g>
     </g>
    </g>
    <g id="xtick_8">
     <g id="line2d_15">
      <path d="M 180.923871 244.66 
L 180.923871 10.8 
" clip-path="url(#p687219d5c2)" style="fill: none; stroke: #b0b0b0; stroke-width: 0.8; stroke-linecap: square"/>
     </g>
     <g id="line2d_16">
      <g>
       <use xlink:href="#me4d3f03dd1" x="180.923871" y="244.66" style="stroke: #000000; stroke-width: 0.6"/>
      </g>
     </g>
    </g>
    <g id="xtick_9">
     <g id="line2d_17">
      <path d="M 199.26225 244.66 
L 199.26225 10.8 
" clip-path="url(#p687219d5c2)" style="fill: none; stroke: #b0b0b0; stroke-width: 0.8; stroke-linecap: square"/>
     </g>
     <g id="line2d_18">
      <g>
       <use xlink:href="#me4d3f03dd1" x="199.26225" y="244.66" style="stroke: #000000; stroke-width: 0.6"/>
      </g>
     </g>
    </g>
    <g id="xtick_10">
     <g id="line2d_19">
      <path d="M 214.245796 244.66 
L 214.245796 10.8 
" clip-path="url(#p687219d5c2)" style="fill: none; stroke: #b0b0b0; stroke-width: 0.8; stroke-linecap: square"/>
     </g>
     <g id="line2d_20">
      <g>
       <use xlink:href="#me4d3f03dd1" x="214.245796" y="244.66" style="stroke: #000000; stroke-width: 0.6"/>
      </g>
     </g>
    </g>
    <g id="xtick_11">
     <g id="line2d_21">
      <path d="M 226.914204 244.66 
L 226.914204 10.8 
" clip-path="url(#p687219d5c2)" style="fill: none; stroke: #b0b0b0; stroke-width: 0.8; stroke-linecap: square"/>
     </g>
     <g id="line2d_22">
      <g>
       <use xlink:href="#me4d3f03dd1" x="226.914204" y="244.66" style="stroke: #000000; stroke-width: 0.6"/>
      </g>
     </g>
    </g>
    <g id="xtick_12">
     <g id="line2d_23">
      <path d="M 237.888079 244.66 
L 237.888079 10.8 
" clip-path="url(#p687219d5c2)" style="fill: none; stroke: #b0b0b0; stroke-width: 0.8; stroke-linecap: square"/>
     </g>
     <g id="line2d_24">
      <g>
       <use xlink:href="#me4d3f03dd1" x="237.888079" y="244.66" style="stroke: #000000; stroke-width: 0.6"/>
      </g>
     </g>
    </g>
    <g id="xtick_13">
     <g id="line2d_25">
      <path d="M 247.567722 244.66 
L 247.567722 10.8 
" clip-path="url(#p687219d5c2)" style="fill: none; stroke: #b0b0b0; stroke-width: 0.8; stroke-linecap: square"/>
     </g>
     <g id="line2d_26">
      <g>
       <use xlink:href="#me4d3f03dd1" x="247.567722" y="244.66" style="stroke: #000000; stroke-width: 0.6"/>
      </g>
     </g>
    </g>
    <g id="xtick_14">
     <g id="line2d_27">
      <path d="M 313.190666 244.66 
L 313.190666 10.8 
" clip-path="url(#p687219d5c2)" style="fill: none; stroke: #b0b0b0; stroke-width: 0.8; stroke-linecap: square"/>
     </g>
     <g id="line2d_28">
      <g>
       <use xlink:href="#me4d3f03dd1" x="313.190666" y="244.66" style="stroke: #000000; stroke-width: 0.6"/>
      </g>
     </g>
    </g>
    <g id="xtick_15">
     <g id="line2d_29">
      <path d="M 346.512591 244.66 
L 346.512591 10.8 
" clip-path="url(#p687219d5c2)" style="fill: none; stroke: #b0b0b0; stroke-width: 0.8; stroke-linecap: square"/>
     </g>
     <g id="line2d_30">
      <g>
       <use xlink:href="#me4d3f03dd1" x="346.512591" y="244.66" style="stroke: #000000; stroke-width: 0.6"/>
      </g>
     </g>
    </g>
    <g id="xtick_16">
     <g id="line2d_31">
      <path d="M 370.154874 244.66 
L 370.154874 10.8 
" clip-path="url(#p687219d5c2)" style="fill: none; stroke: #b0b0b0; stroke-width: 0.8; stroke-linecap: square"/>
     </g>
     <g id="line2d_32">
      <g>
       <use xlink:href="#me4d3f03dd1" x="370.154874" y="244.66" style="stroke: #000000; stroke-width: 0.6"/>
      </g>
     </g>
    </g>
    <g id="xtick_17">
     <g id="line2d_33">
      <path d="M 388.493253 244.66 
L 388.493253 10.8 
" clip-path="url(#p687219d5c2)" style="fill: none; stroke: #b0b0b0; stroke-width: 0.8; stroke-linecap: square"/>
     </g>
     <g id="line2d_34">
      <g>
       <use xlink:href="#me4d3f03dd1" x="388.493253" y="244.66" style="stroke: #000000; stroke-width: 0.6"/>
      </g>
     </g>
    </g>
    <g id="xtick_18">
     <g id="line2d_35">
      <path d="M 403.476799 244.66 
L 403.476799 10.8 
" clip-path="url(#p687219d5c2)" style="fill: none; stroke: #b0b0b0; stroke-width: 0.8; stroke-linecap: square"/>
     </g>
     <g id="line2d_36">
      <g>
       <use xlink:href="#me4d3f03dd1" x="403.476799" y="244.66" style="stroke: #000000; stroke-width: 0.6"/>
      </g>
     </g>
    </g>
    <g id="xtick_19">
     <g id="line2d_37">
      <path d="M 416.145208 244.66 
L 416.145208 10.8 
" clip-path="url(#p687219d5c2)" style="fill: none; stroke: #b0b0b0; stroke-width: 0.8; stroke-linecap: square"/>
     </g>
     <g id="line2d_38">
      <g>
       <use xlink:href="#me4d3f03dd1" x="416.145208" y="244.66" style="stroke: #000000; stroke-width: 0.6"/>
      </g>
     </g>
    </g>
    <g id="xtick_20">
     <g id="line2d_39">
      <path d="M 427.119082 244.66 
L 427.119082 10.8 
" clip-path="url(#p687219d5c2)" style="fill: none; stroke: #b0b0b0; stroke-width: 0.8; stroke-linecap: square"/>
     </g>
     <g id="line2d_40">
      <g>
       <use xlink:href="#me4d3f03dd1" x="427.119082" y="244.66" style="stroke: #000000; stroke-width: 0.6"/>
      </g>
     </g>
    </g>
    <g id="xtick_21">
     <g id="line2d_41">
      <path d="M 436.798725 244.66 
L 436.798725 10.8 
" clip-path="url(#p687219d5c2)" style="fill: none; stroke: #b0b0b0; stroke-width: 0.8; stroke-linecap: square"/>
     </g>
     <g id="line2d_42">
      <g>
       <use xlink:href="#me4d3f03dd1" x="436.798725" y="244.66" style="stroke: #000000; stroke-width: 0.6"/>
      </g>
     </g>
    </g>
    <g id="text_4">
     <!-- Performance ratio $\tau$ -->
     <g transform="translate(221.1 272.936562) scale(0.1 -0.1)">
      <defs>
       <path id="DejaVuSans-50" d="M 1259 4147 
L 1259 2394 
L 2053 2394 
Q 2494 2394 2734 2622 
Q 2975 2850 2975 3272 
Q 2975 3691 2734 3919 
Q 2494 4147 2053 4147 
L 1259 4147 
z
M 628 4666 
L 2053 4666 
Q 2838 4666 3239 4311 
Q 3641 3956 3641 3272 
Q 3641 2581 3239 2228 
Q 2838 1875 2053 1875 
L 1259 1875 
L 1259 0 
L 628 0 
L 628 4666 
z
" transform="scale(0.015625)"/>
       <path id="DejaVuSans-65" d="M 3597 1894 
L 3597 1613 
L 953 1613 
Q 991 1019 1311 708 
Q 1631 397 2203 397 
Q 2534 397 2845 478 
Q 3156 559 3463 722 
L 3463 178 
Q 3153 47 2828 -22 
Q 2503 -91 2169 -91 
Q 1331 -91 842 396 
Q 353 884 353 1716 
Q 353 2575 817 3079 
Q 1281 3584 2069 3584 
Q 2775 3584 3186 3129 
Q 3597 2675 3597 1894 
z
M 3022 2063 
Q 3016 2534 2758 2815 
Q 2500 3097 2075 3097 
Q 1594 3097 1305 2825 
Q 1016 2553 972 2059 
L 3022 2063 
z
" transform="scale(0.015625)"/>
       <path id="DejaVuSans-72" d="M 2631 2963 
Q 2534 3019 2420 3045 
Q 2306 3072 2169 3072 
Q 1681 3072 1420 2755 
Q 1159 2438 1159 1844 
L 1159 0 
L 581 0 
L 581 3500 
L 1159 3500 
L 1159 2956 
Q 1341 3275 1631 3429 
Q 1922 3584 2338 3584 
Q 2397 3584 2469 3576 
Q 2541 3569 2628 3553 
L 2631 2963 
z
" transform="scale(0.015625)"/>
       <path id="DejaVuSans-66" d="M 2375 4863 
L 2375 4384 
L 1825 4384 
Q 1516 4384 1395 4259 
Q 1275 4134 1275 3809 
L 1275 3500 
L 2222 3500 
L 2222 3053 
L 1275 3053 
L 1275 0 
L 697 0 
L 697 3053 
L 147 3053 
L 147 3500 
L 697 3500 
L 697 3744 
Q 697 4328 969 4595 
Q 1241 4863 1831 4863 
L 2375 4863 
z
" transform="scale(0.015625)"/>
       <path id="DejaVuSans-6f" d="M 1959 3097 
Q 1497 3097 1228 2736 
Q 959 2375 959 1747 
Q 959 1119 1226 758 
Q 1494 397 1959 397 
Q 2419 397 2687 759 
Q 2956 1122 2956 1747 
Q 2956 2369 2687 2733 
Q 2419 3097 1959 3097 
z
M 1959 3584 
Q 2709 3584 3137 3096 
Q 3566 2609 3566 1747 
Q 3566 888 3137 398 
Q 2709 -91 1959 -91 
Q 1206 -91 779 398 
Q 353 888 353 1747 
Q 353 2609 779 3096 
Q 1206 3584 1959 3584 
z
" transform="scale(0.015625)"/>
       <path id="DejaVuSans-6d" d="M 3328 2828 
Q 3544 3216 3844 3400 
Q 4144 3584 4550 3584 
Q 5097 3584 5394 3201 
Q 5691 2819 5691 2113 
L 5691 0 
L 5113 0 
L 5113 2094 
Q 5113 2597 4934 2840 
Q 4756 3084 4391 3084 
Q 3944 3084 3684 2787 
Q 3425 2491 3425 1978 
L 3425 0 
L 2847 0 
L 2847 2094 
Q 2847 2600 2669 2842 
Q 2491 3084 2119 3084 
Q 1678 3084 1418 2786 
Q 1159 2488 1159 1978 
L 1159 0 
L 581 0 
L 581 3500 
L 1159 3500 
L 1159 2956 
Q 1356 3278 1631 3431 
Q 1906 3584 2284 3584 
Q 2666 3584 2933 3390 
Q 3200 3197 3328 2828 
z
" transform="scale(0.015625)"/>
       <path id="DejaVuSans-61" d="M 2194 1759 
Q 1497 1759 1228 1600 
Q 959 1441 959 1056 
Q 959 750 1161 570 
Q 1363 391 1709 391 
Q 2188 391 2477 730 
Q 2766 1069 2766 1631 
L 2766 1759 
L 2194 1759 
z
M 3341 1997 
L 3341 0 
L 2766 0 
L 2766 531 
Q 2569 213 2275 61 
Q 1981 -91 1556 -91 
Q 1019 -91 701 211 
Q 384 513 384 1019 
Q 384 1609 779 1909 
Q 1175 2209 1959 2209 
L 2766 2209 
L 2766 2266 
Q 2766 2663 2505 2880 
Q 2244 3097 1772 3097 
Q 1472 3097 1187 3025 
Q 903 2953 641 2809 
L 641 3341 
Q 956 3463 1253 3523 
Q 1550 3584 1831 3584 
Q 2591 3584 2966 3190 
Q 3341 2797 3341 1997 
z
" transform="scale(0.015625)"/>
       <path id="DejaVuSans-6e" d="M 3513 2113 
L 3513 0 
L 2938 0 
L 2938 2094 
Q 2938 2591 2744 2837 
Q 2550 3084 2163 3084 
Q 1697 3084 1428 2787 
Q 1159 2491 1159 1978 
L 1159 0 
L 581 0 
L 581 3500 
L 1159 3500 
L 1159 2956 
Q 1366 3272 1645 3428 
Q 1925 3584 2291 3584 
Q 2894 3584 3203 3211 
Q 3513 2838 3513 2113 
z
" transform="scale(0.015625)"/>
       <path id="DejaVuSans-63" d="M 3122 3366 
L 3122 2828 
Q 2878 2963 2633 3030 
Q 2388 3097 2138 3097 
Q 1578 3097 1268 2742 
Q 959 2388 959 1747 
Q 959 1106 1268 751 
Q 1578 397 2138 397 
Q 2388 397 2633 464 
Q 2878 531 3122 666 
L 3122 134 
Q 2881 22 2623 -34 
Q 2366 -91 2075 -91 
Q 1284 -91 818 406 
Q 353 903 353 1747 
Q 353 2603 823 3093 
Q 1294 3584 2113 3584 
Q 2378 3584 2631 3529 
Q 2884 3475 3122 3366 
z
" transform="scale(0.015625)"/>
       <path id="DejaVuSans-20" transform="scale(0.015625)"/>
       <path id="DejaVuSans-74" d="M 1172 4494 
L 1172 3500 
L 2356 3500 
L 2356 3053 
L 1172 3053 
L 1172 1153 
Q 1172 725 1289 603 
Q 1406 481 1766 481 
L 2356 481 
L 2356 0 
L 1766 0 
Q 1100 0 847 248 
Q 594 497 594 1153 
L 594 3053 
L 172 3053 
L 172 3500 
L 594 3500 
L 594 4494 
L 1172 4494 
z
" transform="scale(0.015625)"/>
       <path id="DejaVuSans-69" d="M 603 3500 
L 1178 3500 
L 1178 0 
L 603 0 
L 603 3500 
z
M 603 4863 
L 1178 4863 
L 1178 4134 
L 603 4134 
L 603 4863 
z
" transform="scale(0.015625)"/>
       <path id="Cmmi10-bf" d="M 997 97 
Q 997 141 1006 166 
L 1678 2363 
L 1100 2363 
Q 866 2363 662 2216 
Q 459 2069 325 1844 
Q 313 1819 288 1819 
L 213 1819 
Q 153 1819 153 1881 
Q 153 1894 166 1919 
Q 375 2275 614 2517 
Q 853 2759 1153 2759 
L 3116 2759 
Q 3184 2759 3231 2712 
Q 3278 2666 3278 2597 
Q 3278 2503 3211 2433 
Q 3144 2363 3047 2363 
L 1888 2363 
L 1459 153 
Q 1434 50 1365 -17 
Q 1297 -84 1191 -84 
Q 1109 -84 1053 -32 
Q 997 19 997 97 
z
" transform="scale(0.015625)"/>
      </defs>
      <use xlink:href="#DejaVuSans-50" transform="translate(0 0.015625)"/>
      <use xlink:href="#DejaVuSans-65" transform="translate(60.302734 0.015625)"/>
      <use xlink:href="#DejaVuSans-72" transform="translate(121.826172 0.015625)"/>
      <use xlink:href="#DejaVuSans-66" transform="translate(162.939453 0.015625)"/>
      <use xlink:href="#DejaVuSans-6f" transform="translate(198.144531 0.015625)"/>
      <use xlink:href="#DejaVuSans-72" transform="translate(259.326172 0.015625)"/>
      <use xlink:href="#DejaVuSans-6d" transform="translate(300.439453 0.015625)"/>
      <use xlink:href="#DejaVuSans-61" transform="translate(397.851562 0.015625)"/>
      <use xlink:href="#DejaVuSans-6e" transform="translate(459.130859 0.015625)"/>
      <use xlink:href="#DejaVuSans-63" transform="translate(522.509766 0.015625)"/>
      <use xlink:href="#DejaVuSans-65" transform="translate(577.490234 0.015625)"/>
      <use xlink:href="#DejaVuSans-20" transform="translate(639.013672 0.015625)"/>
      <use xlink:href="#DejaVuSans-72" transform="translate(670.800781 0.015625)"/>
      <use xlink:href="#DejaVuSans-61" transform="translate(711.914062 0.015625)"/>
      <use xlink:href="#DejaVuSans-74" transform="translate(773.193359 0.015625)"/>
      <use xlink:href="#DejaVuSans-69" transform="translate(812.402344 0.015625)"/>
      <use xlink:href="#DejaVuSans-6f" transform="translate(840.185547 0.015625)"/>
      <use xlink:href="#DejaVuSans-20" transform="translate(901.367188 0.015625)"/>
      <use xlink:href="#Cmmi10-bf" transform="translate(933.154297 0.015625)"/>
     </g>
    </g>
   </g>
   <g id="matplotlib.axis_2">
    <g id="ytick_1">
     <g id="line2d_43">
      <path d="M 46.7 234.03 
L 493.2 234.03 
" clip-path="url(#p687219d5c2)" style="fill: none; stroke: #b0b0b0; stroke-width: 0.8; stroke-linecap: square"/>
     </g>
     <g id="line2d_44">
      <defs>
       <path id="md754368414" d="M 0 0 
L -3.5 0 
" style="stroke: #000000; stroke-width: 0.8"/>
      </defs>
      <g>
       <use xlink:href="#md754368414" x="46.7" y="234.03" style="stroke: #000000; stroke-width: 0.8"/>
      </g>
     </g>
     <g id="text_5">
      <!-- 0.0 -->
      <g transform="translate(23.796875 237.829219) scale(0.1 -0.1)">
       <defs>
        <path id="DejaVuSans-2e" d="M 684 794 
L 1344 794 
L 1344 0 
L 684 0 
L 684 794 
z
" transform="scale(0.015625)"/>
       </defs>
       <use xlink:href="#DejaVuSans-30"/>
       <use xlink:href="#DejaVuSans-2e" x="63.623047"/>
       <use xlink:href="#DejaVuSans-30" x="95.410156"/>
      </g>
     </g>
    </g>
    <g id="ytick_2">
     <g id="line2d_45">
      <path d="M 46.7 191.51 
L 493.2 191.51 
" clip-path="url(#p687219d5c2)" style="fill: none; stroke: #b0b0b0; stroke-width: 0.8; stroke-linecap: square"/>
     </g>
     <g id="line2d_46">
      <g>
       <use xlink:href="#md754368414" x="46.7" y="191.51" style="stroke: #000000; stroke-width: 0.8"/>
      </g>
     </g>
     <g id="text_6">
      <!-- 0.2 -->
      <g transform="translate(23.796875 195.309219) scale(0.1 -0.1)">
       <use xlink:href="#DejaVuSans-30"/>
       <use xlink:href="#DejaVuSans-2e" x="63.623047"/>
       <use xlink:href="#DejaVuSans-32" x="95.410156"/>
      </g>
     </g>
    </g>
    <g id="ytick_3">
     <g id="line2d_47">
      <path d="M 46.7 148.99 
L 493.2 148.99 
" clip-path="url(#p687219d5c2)" style="fill: none; stroke: #b0b0b0; stroke-width: 0.8; stroke-linecap: square"/>
     </g>
     <g id="line2d_48">
      <g>
       <use xlink:href="#md754368414" x="46.7" y="148.99" style="stroke: #000000; stroke-width: 0.8"/>
      </g>
     </g>
     <g id="text_7">
      <!-- 0.4 -->
      <g transform="translate(23.796875 152.789219) scale(0.1 -0.1)">
       <defs>
        <path id="DejaVuSans-34" d="M 2419 4116 
L 825 1625 
L 2419 1625 
L 2419 4116 
z
M 2253 4666 
L 3047 4666 
L 3047 1625 
L 3713 1625 
L 3713 1100 
L 3047 1100 
L 3047 0 
L 2419 0 
L 2419 1100 
L 313 1100 
L 313 1709 
L 2253 4666 
z
" transform="scale(0.015625)"/>
       </defs>
       <use xlink:href="#DejaVuSans-30"/>
       <use xlink:href="#DejaVuSans-2e" x="63.623047"/>
       <use xlink:href="#DejaVuSans-34" x="95.410156"/>
      </g>
     </g>
    </g>
    <g id="ytick_4">
     <g id="line2d_49">
      <path d="M 46.7 106.47 
L 493.2 106.47 
" clip-path="url(#p687219d5c2)" style="fill: none; stroke: #b0b0b0; stroke-width: 0.8; stroke-linecap: square"/>
     </g>
     <g id="line2d_50">
      <g>
       <use xlink:href="#md754368414" x="46.7" y="106.47" style="stroke: #000000; stroke-width: 0.8"/>
      </g>
     </g>
     <g id="text_8">
      <!-- 0.6 -->
      <g transform="translate(23.796875 110.269219) scale(0.1 -0.1)">
       <defs>
        <path id="DejaVuSans-36" d="M 2113 2584 
Q 1688 2584 1439 2293 
Q 1191 2003 1191 1497 
Q 1191 994 1439 701 
Q 1688 409 2113 409 
Q 2538 409 2786 701 
Q 3034 994 3034 1497 
Q 3034 2003 2786 2293 
Q 2538 2584 2113 2584 
z
M 3366 4563 
L 3366 3988 
Q 3128 4100 2886 4159 
Q 2644 4219 2406 4219 
Q 1781 4219 1451 3797 
Q 1122 3375 1075 2522 
Q 1259 2794 1537 2939 
Q 1816 3084 2150 3084 
Q 2853 3084 3261 2657 
Q 3669 2231 3669 1497 
Q 3669 778 3244 343 
Q 2819 -91 2113 -91 
Q 1303 -91 875 529 
Q 447 1150 447 2328 
Q 447 3434 972 4092 
Q 1497 4750 2381 4750 
Q 2619 4750 2861 4703 
Q 3103 4656 3366 4563 
z
" transform="scale(0.015625)"/>
       </defs>
       <use xlink:href="#DejaVuSans-30"/>
       <use xlink:href="#DejaVuSans-2e" x="63.623047"/>
       <use xlink:href="#DejaVuSans-36" x="95.410156"/>
      </g>
     </g>
    </g>
    <g id="ytick_5">
     <g id="line2d_51">
      <path d="M 46.7 63.95 
L 493.2 63.95 
" clip-path="url(#p687219d5c2)" style="fill: none; stroke: #b0b0b0; stroke-width: 0.8; stroke-linecap: square"/>
     </g>
     <g id="line2d_52">
      <g>
       <use xlink:href="#md754368414" x="46.7" y="63.95" style="stroke: #000000; stroke-width: 0.8"/>
      </g>
     </g>
     <g id="text_9">
      <!-- 0.8 -->
      <g transform="translate(23.796875 67.749219) scale(0.1 -0.1)">
       <defs>
        <path id="DejaVuSans-38" d="M 2034 2216 
Q 1584 2216 1326 1975 
Q 1069 1734 1069 1313 
Q 1069 891 1326 650 
Q 1584 409 2034 409 
Q 2484 409 2743 651 
Q 3003 894 3003 1313 
Q 3003 1734 2745 1975 
Q 2488 2216 2034 2216 
z
M 1403 2484 
Q 997 2584 770 2862 
Q 544 3141 544 3541 
Q 544 4100 942 4425 
Q 1341 4750 2034 4750 
Q 2731 4750 3128 4425 
Q 3525 4100 3525 3541 
Q 3525 3141 3298 2862 
Q 3072 2584 2669 2484 
Q 3125 2378 3379 2068 
Q 3634 1759 3634 1313 
Q 3634 634 3220 271 
Q 2806 -91 2034 -91 
Q 1263 -91 848 271 
Q 434 634 434 1313 
Q 434 1759 690 2068 
Q 947 2378 1403 2484 
z
M 1172 3481 
Q 1172 3119 1398 2916 
Q 1625 2713 2034 2713 
Q 2441 2713 2670 2916 
Q 2900 3119 2900 3481 
Q 2900 3844 2670 4047 
Q 2441 4250 2034 4250 
Q 1625 4250 1398 4047 
Q 1172 3844 1172 3481 
z
" transform="scale(0.015625)"/>
       </defs>
       <use xlink:href="#DejaVuSans-30"/>
       <use xlink:href="#DejaVuSans-2e" x="63.623047"/>
       <use xlink:href="#DejaVuSans-38" x="95.410156"/>
      </g>
     </g>
    </g>
    <g id="ytick_6">
     <g id="line2d_53">
      <path d="M 46.7 21.43 
L 493.2 21.43 
" clip-path="url(#p687219d5c2)" style="fill: none; stroke: #b0b0b0; stroke-width: 0.8; stroke-linecap: square"/>
     </g>
     <g id="line2d_54">
      <g>
       <use xlink:href="#md754368414" x="46.7" y="21.43" style="stroke: #000000; stroke-width: 0.8"/>
      </g>
     </g>
     <g id="text_10">
      <!-- 1.0 -->
      <g transform="translate(23.796875 25.229219) scale(0.1 -0.1)">
       <use xlink:href="#DejaVuSans-31"/>
       <use xlink:href="#DejaVuSans-2e" x="63.623047"/>
       <use xlink:href="#DejaVuSans-30" x="95.410156"/>
      </g>
     </g>
    </g>
    <g id="text_11">
     <!-- Proportion of problems solved -->
     <g transform="translate(17.717187 202.6675) rotate(-90) scale(0.1 -0.1)">
      <defs>
       <path id="DejaVuSans-70" d="M 1159 525 
L 1159 -1331 
L 581 -1331 
L 581 3500 
L 1159 3500 
L 1159 2969 
Q 1341 3281 1617 3432 
Q 1894 3584 2278 3584 
Q 2916 3584 3314 3078 
Q 3713 2572 3713 1747 
Q 3713 922 3314 415 
Q 2916 -91 2278 -91 
Q 1894 -91 1617 61 
Q 1341 213 1159 525 
z
M 3116 1747 
Q 3116 2381 2855 2742 
Q 2594 3103 2138 3103 
Q 1681 3103 1420 2742 
Q 1159 2381 1159 1747 
Q 1159 1113 1420 752 
Q 1681 391 2138 391 
Q 2594 391 2855 752 
Q 3116 1113 3116 1747 
z
" transform="scale(0.015625)"/>
       <path id="DejaVuSans-62" d="M 3116 1747 
Q 3116 2381 2855 2742 
Q 2594 3103 2138 3103 
Q 1681 3103 1420 2742 
Q 1159 2381 1159 1747 
Q 1159 1113 1420 752 
Q 1681 391 2138 391 
Q 2594 391 2855 752 
Q 3116 1113 3116 1747 
z
M 1159 2969 
Q 1341 3281 1617 3432 
Q 1894 3584 2278 3584 
Q 2916 3584 3314 3078 
Q 3713 2572 3713 1747 
Q 3713 922 3314 415 
Q 2916 -91 2278 -91 
Q 1894 -91 1617 61 
Q 1341 213 1159 525 
L 1159 0 
L 581 0 
L 581 4863 
L 1159 4863 
L 1159 2969 
z
" transform="scale(0.015625)"/>
       <path id="DejaVuSans-6c" d="M 603 4863 
L 1178 4863 
L 1178 0 
L 603 0 
L 603 4863 
z
" transform="scale(0.015625)"/>
       <path id="DejaVuSans-73" d="M 2834 3397 
L 2834 2853 
Q 2591 2978 2328 3040 
Q 2066 3103 1784 3103 
Q 1356 3103 1142 2972 
Q 928 2841 928 2578 
Q 928 2378 1081 2264 
Q 1234 2150 1697 2047 
L 1894 2003 
Q 2506 1872 2764 1633 
Q 3022 1394 3022 966 
Q 3022 478 2636 193 
Q 2250 -91 1575 -91 
Q 1294 -91 989 -36 
Q 684 19 347 128 
L 347 722 
Q 666 556 975 473 
Q 1284 391 1588 391 
Q 1994 391 2212 530 
Q 2431 669 2431 922 
Q 2431 1156 2273 1281 
Q 2116 1406 1581 1522 
L 1381 1569 
Q 847 1681 609 1914 
Q 372 2147 372 2553 
Q 372 3047 722 3315 
Q 1072 3584 1716 3584 
Q 2034 3584 2315 3537 
Q 2597 3491 2834 3397 
z
" transform="scale(0.015625)"/>
       <path id="DejaVuSans-76" d="M 191 3500 
L 800 3500 
L 1894 563 
L 2988 3500 
L 3597 3500 
L 2284 0 
L 1503 0 
L 191 3500 
z
" transform="scale(0.015625)"/>
       <path id="DejaVuSans-64" d="M 2906 2969 
L 2906 4863 
L 3481 4863 
L 3481 0 
L 2906 0 
L 2906 525 
Q 2725 213 2448 61 
Q 2172 -91 1784 -91 
Q 1150 -91 751 415 
Q 353 922 353 1747 
Q 353 2572 751 3078 
Q 1150 3584 1784 3584 
Q 2172 3584 2448 3432 
Q 2725 3281 2906 2969 
z
M 947 1747 
Q 947 1113 1208 752 
Q 1469 391 1925 391 
Q 2381 391 2643 752 
Q 2906 1113 2906 1747 
Q 2906 2381 2643 2742 
Q 2381 3103 1925 3103 
Q 1469 3103 1208 2742 
Q 947 2381 947 1747 
z
" transform="scale(0.015625)"/>
      </defs>
      <use xlink:href="#DejaVuSans-50"/>
      <use xlink:href="#DejaVuSans-72" x="58.552734"/>
      <use xlink:href="#DejaVuSans-6f" x="97.416016"/>
      <use xlink:href="#DejaVuSans-70" x="158.597656"/>
      <use xlink:href="#DejaVuSans-6f" x="222.074219"/>
      <use xlink:href="#DejaVuSans-72" x="283.255859"/>
      <use xlink:href="#DejaVuSans-74" x="324.369141"/>
      <use xlink:href="#DejaVuSans-69" x="363.578125"/>
      <use xlink:href="#DejaVuSans-6f" x="391.361328"/>
      <use xlink:href="#DejaVuSans-6e" x="452.542969"/>
      <use xlink:href="#DejaVuSans-20" x="515.921875"/>
      <use xlink:href="#DejaVuSans-6f" x="547.708984"/>
      <use xlink:href="#DejaVuSans-66" x="608.890625"/>
      <use xlink:href="#DejaVuSans-20" x="644.095703"/>
      <use xlink:href="#DejaVuSans-70" x="675.882812"/>
      <use xlink:href="#DejaVuSans-72" x="739.359375"/>
      <use xlink:href="#DejaVuSans-6f" x="778.222656"/>
      <use xlink:href="#DejaVuSans-62" x="839.404297"/>
      <use xlink:href="#DejaVuSans-6c" x="902.880859"/>
      <use xlink:href="#DejaVuSans-65" x="930.664062"/>
      <use xlink:href="#DejaVuSans-6d" x="992.1875"/>
      <use xlink:href="#DejaVuSans-73" x="1089.599609"/>
      <use xlink:href="#DejaVuSans-20" x="1141.699219"/>
      <use xlink:href="#DejaVuSans-73" x="1173.486328"/>
      <use xlink:href="#DejaVuSans-6f" x="1225.585938"/>
      <use xlink:href="#DejaVuSans-6c" x="1286.767578"/>
      <use xlink:href="#DejaVuSans-76" x="1314.550781"/>
      <use xlink:href="#DejaVuSans-65" x="1373.730469"/>
      <use xlink:href="#DejaVuSans-64" x="1435.253906"/>
     </g>
    </g>
   </g>
   <g id="line2d_55">
    <path d="M 66.995455 229.778 
L 75.113636 229.778 
L 75.113636 225.526 
L 91.35 225.526 
L 91.35 221.274 
L 113.675 221.274 
L 113.675 217.022 
L 152.236364 217.022 
L 152.236364 212.77 
L 162.384091 212.77 
L 162.384091 208.518 
L 164.413636 208.518 
L 164.413636 204.266 
L 170.502273 204.266 
L 170.502273 200.014 
L 194.856818 200.014 
L 194.856818 191.51 
L 202.975 191.51 
L 202.975 187.258 
L 209.063636 187.258 
L 209.063636 183.006 
L 215.152273 183.006 
L 215.152273 178.754 
L 225.3 178.754 
L 225.3 174.502 
L 229.359091 174.502 
L 229.359091 170.25 
L 241.536364 170.25 
L 241.536364 165.998 
L 253.713636 165.998 
L 253.713636 161.746 
L 261.831818 161.746 
L 261.831818 157.494 
L 314.6 157.494 
L 314.6 153.242 
L 472.904545 153.242 
L 472.904545 153.242 
" clip-path="url(#p687219d5c2)" style="fill: none; stroke: #1f77b4; stroke-width: 1.5; stroke-linecap: square"/>
   </g>
   <g id="line2d_56">
    <path d="M 66.995455 234.03 
L 174.561364 234.03 
L 174.561364 229.778 
L 178.620455 229.778 
L 178.620455 225.526 
L 237.477273 225.526 
L 237.477273 221.274 
L 241.536364 221.274 
L 241.536364 217.022 
L 472.904545 217.022 
L 472.904545 217.022 
" clip-path="url(#p687219d5c2)" style="fill: none; stroke: #ff7f0e; stroke-width: 1.5; stroke-linecap: square"/>
   </g>
   <g id="line2d_57">
    <path d="M 66.995455 234.03 
L 198.915909 234.03 
L 198.915909 225.526 
L 227.329545 225.526 
L 227.329545 221.274 
L 243.565909 221.274 
L 243.565909 217.022 
L 247.625 217.022 
L 247.625 212.77 
L 261.831818 212.77 
L 261.831818 208.518 
L 274.009091 208.518 
L 274.009091 204.266 
L 296.334091 204.266 
L 296.334091 200.014 
L 316.629545 200.014 
L 316.629545 195.762 
L 361.279545 195.762 
L 361.279545 191.51 
L 371.427273 191.51 
L 371.427273 187.258 
L 472.904545 187.258 
L 472.904545 187.258 
" clip-path="url(#p687219d5c2)" style="fill: none; stroke: #2ca02c; stroke-width: 1.5; stroke-linecap: square"/>
   </g>
   <g id="line2d_58">
    <path d="M 66.995455 234.03 
L 336.925 234.03 
L 336.925 229.778 
L 383.604545 229.778 
L 383.604545 225.526 
L 391.722727 225.526 
L 391.722727 221.274 
L 416.077273 221.274 
L 416.077273 217.022 
L 420.136364 217.022 
L 420.136364 212.77 
L 442.461364 212.77 
L 442.461364 208.518 
L 448.55 208.518 
L 448.55 204.266 
L 460.727273 204.266 
L 460.727273 200.014 
L 470.875 200.014 
L 470.875 195.762 
L 472.904545 195.762 
L 472.904545 195.762 
" clip-path="url(#p687219d5c2)" style="fill: none; stroke: #d62728; stroke-width: 1.5; stroke-linecap: square"/>
   </g>
   <g id="line2d_59">
    <path d="M 66.995455 174.502 
L 66.995455 170.25 
L 71.054545 170.25 
L 71.054545 165.998 
L 73.084091 165.998 
L 73.084091 161.746 
L 79.172727 161.746 
L 79.172727 157.494 
L 81.202273 157.494 
L 81.202273 153.242 
L 85.261364 153.242 
L 85.261364 144.738 
L 89.320455 144.738 
L 89.320455 140.486 
L 95.409091 140.486 
L 95.409091 127.73 
L 103.527273 127.73 
L 103.527273 123.478 
L 105.556818 123.478 
L 105.556818 114.974 
L 107.586364 114.974 
L 107.586364 110.722 
L 109.615909 110.722 
L 109.615909 106.47 
L 115.704545 106.47 
L 115.704545 102.218 
L 117.734091 102.218 
L 117.734091 97.966 
L 119.763636 97.966 
L 119.763636 85.21 
L 121.793182 85.21 
L 121.793182 76.706 
L 131.940909 76.706 
L 131.940909 72.454 
L 136 72.454 
L 136 68.202 
L 140.059091 68.202 
L 140.059091 63.95 
L 142.088636 63.95 
L 142.088636 59.698 
L 174.561364 59.698 
L 174.561364 55.446 
L 180.65 55.446 
L 180.65 51.194 
L 184.709091 51.194 
L 184.709091 46.942 
L 188.768182 46.942 
L 188.768182 42.69 
L 276.038636 42.69 
L 276.038636 38.438 
L 422.165909 38.438 
L 422.165909 34.186 
L 472.904545 34.186 
L 472.904545 34.186 
" clip-path="url(#p687219d5c2)" style="fill: none; stroke: #9467bd; stroke-width: 1.5; stroke-linecap: square"/>
   </g>
   <g id="line2d_60">
    <path d="M 66.995455 140.486 
L 69.025 140.486 
L 69.025 136.234 
L 73.084091 136.234 
L 73.084091 131.982 
L 75.113636 131.982 
L 75.113636 127.73 
L 77.143182 127.73 
L 77.143182 119.226 
L 79.172727 119.226 
L 79.172727 114.974 
L 83.231818 114.974 
L 83.231818 110.722 
L 87.290909 110.722 
L 87.290909 106.47 
L 89.320455 106.47 
L 89.320455 102.218 
L 95.409091 102.218 
L 95.409091 97.966 
L 97.438636 97.966 
L 97.438636 93.714 
L 99.468182 93.714 
L 99.468182 89.462 
L 105.556818 89.462 
L 105.556818 85.21 
L 109.615909 85.21 
L 109.615909 80.958 
L 113.675 80.958 
L 113.675 76.706 
L 117.734091 76.706 
L 117.734091 72.454 
L 121.793182 72.454 
L 121.793182 68.202 
L 125.852273 68.202 
L 125.852273 63.95 
L 129.911364 63.95 
L 129.911364 55.446 
L 136 55.446 
L 136 46.942 
L 142.088636 46.942 
L 142.088636 42.69 
L 164.413636 42.69 
L 164.413636 38.438 
L 178.620455 38.438 
L 178.620455 29.934 
L 472.904545 29.934 
L 472.904545 29.934 
" clip-path="url(#p687219d5c2)" style="fill: none; stroke: #8c564b; stroke-width: 1.5; stroke-linecap: square"/>
   </g>
   <g id="line2d_61">
    <path d="M 66.995455 217.022 
L 73.084091 217.022 
L 73.084091 212.77 
L 75.113636 212.77 
L 75.113636 208.518 
L 77.143182 208.518 
L 77.143182 204.266 
L 79.172727 204.266 
L 79.172727 200.014 
L 83.231818 200.014 
L 83.231818 191.51 
L 85.261364 191.51 
L 85.261364 187.258 
L 87.290909 187.258 
L 87.290909 174.502 
L 89.320455 174.502 
L 89.320455 170.25 
L 93.379545 170.25 
L 93.379545 161.746 
L 95.409091 161.746 
L 95.409091 144.738 
L 99.468182 144.738 
L 99.468182 131.982 
L 103.527273 131.982 
L 103.527273 127.73 
L 105.556818 127.73 
L 105.556818 123.478 
L 107.586364 123.478 
L 107.586364 119.226 
L 109.615909 119.226 
L 109.615909 110.722 
L 111.645455 110.722 
L 111.645455 106.47 
L 115.704545 106.47 
L 115.704545 102.218 
L 119.763636 102.218 
L 119.763636 97.966 
L 121.793182 97.966 
L 121.793182 93.714 
L 123.822727 93.714 
L 123.822727 89.462 
L 127.881818 89.462 
L 127.881818 85.21 
L 136 85.21 
L 136 80.958 
L 148.177273 80.958 
L 148.177273 72.454 
L 152.236364 72.454 
L 152.236364 68.202 
L 156.295455 68.202 
L 156.295455 63.95 
L 162.384091 63.95 
L 162.384091 59.698 
L 172.531818 59.698 
L 172.531818 55.446 
L 190.797727 55.446 
L 190.797727 51.194 
L 192.827273 51.194 
L 192.827273 42.69 
L 198.915909 42.69 
L 198.915909 38.438 
L 207.034091 38.438 
L 207.034091 34.186 
L 221.240909 34.186 
L 221.240909 29.934 
L 227.329545 29.934 
L 227.329545 25.682 
L 245.595455 25.682 
L 245.595455 21.43 
L 472.904545 21.43 
L 472.904545 21.43 
" clip-path="url(#p687219d5c2)" style="fill: none; stroke: #e377c2; stroke-width: 1.5; stroke-linecap: square"/>
   </g>
   <g id="line2d_62">
    <path d="M 66.995455 195.762 
L 69.025 195.762 
L 69.025 191.51 
L 71.054545 191.51 
L 71.054545 183.006 
L 79.172727 183.006 
L 79.172727 178.754 
L 87.290909 178.754 
L 87.290909 170.25 
L 101.497727 170.25 
L 101.497727 157.494 
L 107.586364 157.494 
L 107.586364 144.738 
L 109.615909 144.738 
L 109.615909 140.486 
L 117.734091 140.486 
L 117.734091 131.982 
L 129.911364 131.982 
L 129.911364 127.73 
L 136 127.73 
L 136 123.478 
L 144.118182 123.478 
L 144.118182 119.226 
L 146.147727 119.226 
L 146.147727 114.974 
L 148.177273 114.974 
L 148.177273 106.47 
L 150.206818 106.47 
L 150.206818 102.218 
L 154.265909 102.218 
L 154.265909 97.966 
L 164.413636 97.966 
L 164.413636 89.462 
L 168.472727 89.462 
L 168.472727 85.21 
L 172.531818 85.21 
L 172.531818 80.958 
L 174.561364 80.958 
L 174.561364 76.706 
L 178.620455 76.706 
L 178.620455 68.202 
L 182.679545 68.202 
L 182.679545 63.95 
L 184.709091 63.95 
L 184.709091 59.698 
L 186.738636 59.698 
L 186.738636 55.446 
L 190.797727 55.446 
L 190.797727 51.194 
L 192.827273 51.194 
L 192.827273 46.942 
L 200.945455 46.942 
L 200.945455 42.69 
L 207.034091 42.69 
L 207.034091 38.438 
L 211.093182 38.438 
L 211.093182 34.186 
L 213.122727 34.186 
L 213.122727 29.934 
L 217.181818 29.934 
L 217.181818 25.682 
L 219.211364 25.682 
L 219.211364 21.43 
L 472.904545 21.43 
L 472.904545 21.43 
" clip-path="url(#p687219d5c2)" style="fill: none; stroke: #7f7f7f; stroke-width: 1.5; stroke-linecap: square"/>
   </g>
   <g id="patch_3">
    <path d="M 46.7 244.66 
L 46.7 10.8 
" style="fill: none; stroke: #000000; stroke-width: 0.8; stroke-linejoin: miter; stroke-linecap: square"/>
   </g>
   <g id="patch_4">
    <path d="M 493.2 244.66 
L 493.2 10.8 
" style="fill: none; stroke: #000000; stroke-width: 0.8; stroke-linejoin: miter; stroke-linecap: square"/>
   </g>
   <g id="patch_5">
    <path d="M 46.7 244.66 
L 493.2 244.66 
" style="fill: none; stroke: #000000; stroke-width: 0.8; stroke-linejoin: miter; stroke-linecap: square"/>
   </g>
   <g id="patch_6">
    <path d="M 46.7 10.8 
L 493.2 10.8 
" style="fill: none; stroke: #000000; stroke-width: 0.8; stroke-linejoin: miter; stroke-linecap: square"/>
   </g>
   <g id="legend_1">
    <g id="patch_7">
     <path d="M 419.89875 175.9 
L 487.6 175.9 
Q 489.2 175.9 489.2 174.3 
L 489.2 81.16 
Q 489.2 79.56 487.6 79.56 
L 419.89875 79.56 
Q 418.29875 79.56 418.29875 81.16 
L 418.29875 174.3 
Q 418.29875 175.9 419.89875 175.9 
z
" style="fill: #ffffff; opacity: 0.8; stroke: #cccccc; stroke-linejoin: miter"/>
    </g>
    <g id="line2d_63">
     <path d="M 421.49875 86.03875 
L 421.49875 86.03875 
L 429.49875 86.03875 
L 429.49875 86.03875 
L 437.49875 86.03875 
" style="fill: none; stroke: #1f77b4; stroke-width: 1.5; stroke-linecap: square"/>
    </g>
    <g id="text_12">
     <!-- ALTRO:0 -->
     <g transform="translate(443.89875 88.83875) scale(0.08 -0.08)">
      <defs>
       <path id="DejaVuSans-41" d="M 2188 4044 
L 1331 1722 
L 3047 1722 
L 2188 4044 
z
M 1831 4666 
L 2547 4666 
L 4325 0 
L 3669 0 
L 3244 1197 
L 1141 1197 
L 716 0 
L 50 0 
L 1831 4666 
z
" transform="scale(0.015625)"/>
       <path id="DejaVuSans-4c" d="M 628 4666 
L 1259 4666 
L 1259 531 
L 3531 531 
L 3531 0 
L 628 0 
L 628 4666 
z
" transform="scale(0.015625)"/>
       <path id="DejaVuSans-54" d="M -19 4666 
L 3928 4666 
L 3928 4134 
L 2272 4134 
L 2272 0 
L 1638 0 
L 1638 4134 
L -19 4134 
L -19 4666 
z
" transform="scale(0.015625)"/>
       <path id="DejaVuSans-52" d="M 2841 2188 
Q 3044 2119 3236 1894 
Q 3428 1669 3622 1275 
L 4263 0 
L 3584 0 
L 2988 1197 
Q 2756 1666 2539 1819 
Q 2322 1972 1947 1972 
L 1259 1972 
L 1259 0 
L 628 0 
L 628 4666 
L 2053 4666 
Q 2853 4666 3247 4331 
Q 3641 3997 3641 3322 
Q 3641 2881 3436 2590 
Q 3231 2300 2841 2188 
z
M 1259 4147 
L 1259 2491 
L 2053 2491 
Q 2509 2491 2742 2702 
Q 2975 2913 2975 3322 
Q 2975 3731 2742 3939 
Q 2509 4147 2053 4147 
L 1259 4147 
z
" transform="scale(0.015625)"/>
       <path id="DejaVuSans-4f" d="M 2522 4238 
Q 1834 4238 1429 3725 
Q 1025 3213 1025 2328 
Q 1025 1447 1429 934 
Q 1834 422 2522 422 
Q 3209 422 3611 934 
Q 4013 1447 4013 2328 
Q 4013 3213 3611 3725 
Q 3209 4238 2522 4238 
z
M 2522 4750 
Q 3503 4750 4090 4092 
Q 4678 3434 4678 2328 
Q 4678 1225 4090 567 
Q 3503 -91 2522 -91 
Q 1538 -91 948 565 
Q 359 1222 359 2328 
Q 359 3434 948 4092 
Q 1538 4750 2522 4750 
z
" transform="scale(0.015625)"/>
       <path id="DejaVuSans-3a" d="M 750 794 
L 1409 794 
L 1409 0 
L 750 0 
L 750 794 
z
M 750 3309 
L 1409 3309 
L 1409 2516 
L 750 2516 
L 750 3309 
z
" transform="scale(0.015625)"/>
      </defs>
      <use xlink:href="#DejaVuSans-41"/>
      <use xlink:href="#DejaVuSans-4c" x="68.408203"/>
      <use xlink:href="#DejaVuSans-54" x="110.371094"/>
      <use xlink:href="#DejaVuSans-52" x="171.455078"/>
      <use xlink:href="#DejaVuSans-4f" x="240.9375"/>
      <use xlink:href="#DejaVuSans-3a" x="317.898438"/>
      <use xlink:href="#DejaVuSans-30" x="351.589844"/>
     </g>
    </g>
    <g id="line2d_64">
     <path d="M 421.49875 97.78125 
L 421.49875 97.78125 
L 429.49875 97.78125 
L 429.49875 97.78125 
L 437.49875 97.78125 
" style="fill: none; stroke: #ff7f0e; stroke-width: 1.5; stroke-linecap: square"/>
    </g>
    <g id="text_13">
     <!-- ALTRO:1 -->
     <g transform="translate(443.89875 100.58125) scale(0.08 -0.08)">
      <use xlink:href="#DejaVuSans-41"/>
      <use xlink:href="#DejaVuSans-4c" x="68.408203"/>
      <use xlink:href="#DejaVuSans-54" x="110.371094"/>
      <use xlink:href="#DejaVuSans-52" x="171.455078"/>
      <use xlink:href="#DejaVuSans-4f" x="240.9375"/>
      <use xlink:href="#DejaVuSans-3a" x="317.898438"/>
      <use xlink:href="#DejaVuSans-31" x="351.589844"/>
     </g>
    </g>
    <g id="line2d_65">
     <path d="M 421.49875 109.52375 
L 421.49875 109.52375 
L 429.49875 109.52375 
L 429.49875 109.52375 
L 437.49875 109.52375 
" style="fill: none; stroke: #2ca02c; stroke-width: 1.5; stroke-linecap: square"/>
    </g>
    <g id="text_14">
     <!-- Ipopt:0 -->
     <g transform="translate(443.89875 112.32375) scale(0.08 -0.08)">
      <defs>
       <path id="DejaVuSans-49" d="M 628 4666 
L 1259 4666 
L 1259 0 
L 628 0 
L 628 4666 
z
" transform="scale(0.015625)"/>
      </defs>
      <use xlink:href="#DejaVuSans-49"/>
      <use xlink:href="#DejaVuSans-70" x="29.492188"/>
      <use xlink:href="#DejaVuSans-6f" x="92.96875"/>
      <use xlink:href="#DejaVuSans-70" x="154.150391"/>
      <use xlink:href="#DejaVuSans-74" x="217.626953"/>
      <use xlink:href="#DejaVuSans-3a" x="256.835938"/>
      <use xlink:href="#DejaVuSans-30" x="290.527344"/>
     </g>
    </g>
    <g id="line2d_66">
     <path d="M 421.49875 121.26625 
L 421.49875 121.26625 
L 429.49875 121.26625 
L 429.49875 121.26625 
L 437.49875 121.26625 
" style="fill: none; stroke: #d62728; stroke-width: 1.5; stroke-linecap: square"/>
    </g>
    <g id="text_15">
     <!-- Ipopt:1 -->
     <g transform="translate(443.89875 124.06625) scale(0.08 -0.08)">
      <use xlink:href="#DejaVuSans-49"/>
      <use xlink:href="#DejaVuSans-70" x="29.492188"/>
      <use xlink:href="#DejaVuSans-6f" x="92.96875"/>
      <use xlink:href="#DejaVuSans-70" x="154.150391"/>
      <use xlink:href="#DejaVuSans-74" x="217.626953"/>
      <use xlink:href="#DejaVuSans-3a" x="256.835938"/>
      <use xlink:href="#DejaVuSans-31" x="290.527344"/>
     </g>
    </g>
    <g id="line2d_67">
     <path d="M 421.49875 133.00875 
L 421.49875 133.00875 
L 429.49875 133.00875 
L 429.49875 133.00875 
L 437.49875 133.00875 
" style="fill: none; stroke: #9467bd; stroke-width: 1.5; stroke-linecap: square"/>
    </g>
    <g id="text_16">
     <!-- ProxDDP:0 -->
     <g transform="translate(443.89875 135.80875) scale(0.08 -0.08)">
      <defs>
       <path id="DejaVuSans-78" d="M 3513 3500 
L 2247 1797 
L 3578 0 
L 2900 0 
L 1881 1375 
L 863 0 
L 184 0 
L 1544 1831 
L 300 3500 
L 978 3500 
L 1906 2253 
L 2834 3500 
L 3513 3500 
z
" transform="scale(0.015625)"/>
       <path id="DejaVuSans-44" d="M 1259 4147 
L 1259 519 
L 2022 519 
Q 2988 519 3436 956 
Q 3884 1394 3884 2338 
Q 3884 3275 3436 3711 
Q 2988 4147 2022 4147 
L 1259 4147 
z
M 628 4666 
L 1925 4666 
Q 3281 4666 3915 4102 
Q 4550 3538 4550 2338 
Q 4550 1131 3912 565 
Q 3275 0 1925 0 
L 628 0 
L 628 4666 
z
" transform="scale(0.015625)"/>
      </defs>
      <use xlink:href="#DejaVuSans-50"/>
      <use xlink:href="#DejaVuSans-72" x="58.552734"/>
      <use xlink:href="#DejaVuSans-6f" x="97.416016"/>
      <use xlink:href="#DejaVuSans-78" x="155.472656"/>
      <use xlink:href="#DejaVuSans-44" x="214.652344"/>
      <use xlink:href="#DejaVuSans-44" x="291.654297"/>
      <use xlink:href="#DejaVuSans-50" x="368.65625"/>
      <use xlink:href="#DejaVuSans-3a" x="428.958984"/>
      <use xlink:href="#DejaVuSans-30" x="462.650391"/>
     </g>
    </g>
    <g id="line2d_68">
     <path d="M 421.49875 144.75125 
L 421.49875 144.75125 
L 429.49875 144.75125 
L 429.49875 144.75125 
L 437.49875 144.75125 
" style="fill: none; stroke: #8c564b; stroke-width: 1.5; stroke-linecap: square"/>
    </g>
    <g id="text_17">
     <!-- ProxDDP:1 -->
     <g transform="translate(443.89875 147.55125) scale(0.08 -0.08)">
      <use xlink:href="#DejaVuSans-50"/>
      <use xlink:href="#DejaVuSans-72" x="58.552734"/>
      <use xlink:href="#DejaVuSans-6f" x="97.416016"/>
      <use xlink:href="#DejaVuSans-78" x="155.472656"/>
      <use xlink:href="#DejaVuSans-44" x="214.652344"/>
      <use xlink:href="#DejaVuSans-44" x="291.654297"/>
      <use xlink:href="#DejaVuSans-50" x="368.65625"/>
      <use xlink:href="#DejaVuSans-3a" x="428.958984"/>
      <use xlink:href="#DejaVuSans-31" x="462.650391"/>
     </g>
    </g>
    <g id="line2d_69">
     <path d="M 421.49875 156.49375 
L 421.49875 156.49375 
L 429.49875 156.49375 
L 429.49875 156.49375 
L 437.49875 156.49375 
" style="fill: none; stroke: #e377c2; stroke-width: 1.5; stroke-linecap: square"/>
    </g>
    <g id="text_18">
     <!-- ProxDDP:2 -->
     <g transform="translate(443.89875 159.29375) scale(0.08 -0.08)">
      <use xlink:href="#DejaVuSans-50"/>
      <use xlink:href="#DejaVuSans-72" x="58.552734"/>
      <use xlink:href="#DejaVuSans-6f" x="97.416016"/>
      <use xlink:href="#DejaVuSans-78" x="155.472656"/>
      <use xlink:href="#DejaVuSans-44" x="214.652344"/>
      <use xlink:href="#DejaVuSans-44" x="291.654297"/>
      <use xlink:href="#DejaVuSans-50" x="368.65625"/>
      <use xlink:href="#DejaVuSans-3a" x="428.958984"/>
      <use xlink:href="#DejaVuSans-32" x="462.650391"/>
     </g>
    </g>
    <g id="line2d_70">
     <path d="M 421.49875 168.23625 
L 421.49875 168.23625 
L 429.49875 168.23625 
L 429.49875 168.23625 
L 437.49875 168.23625 
" style="fill: none; stroke: #7f7f7f; stroke-width: 1.5; stroke-linecap: square"/>
    </g>
    <g id="text_19">
     <!-- ProxDDP:3 -->
     <g transform="translate(443.89875 171.03625) scale(0.08 -0.08)">
      <defs>
       <path id="DejaVuSans-33" d="M 2597 2516 
Q 3050 2419 3304 2112 
Q 3559 1806 3559 1356 
Q 3559 666 3084 287 
Q 2609 -91 1734 -91 
Q 1441 -91 1130 -33 
Q 819 25 488 141 
L 488 750 
Q 750 597 1062 519 
Q 1375 441 1716 441 
Q 2309 441 2620 675 
Q 2931 909 2931 1356 
Q 2931 1769 2642 2001 
Q 2353 2234 1838 2234 
L 1294 2234 
L 1294 2753 
L 1863 2753 
Q 2328 2753 2575 2939 
Q 2822 3125 2822 3475 
Q 2822 3834 2567 4026 
Q 2313 4219 1838 4219 
Q 1578 4219 1281 4162 
Q 984 4106 628 3988 
L 628 4550 
Q 988 4650 1302 4700 
Q 1616 4750 1894 4750 
Q 2613 4750 3031 4423 
Q 3450 4097 3450 3541 
Q 3450 3153 3228 2886 
Q 3006 2619 2597 2516 
z
" transform="scale(0.015625)"/>
      </defs>
      <use xlink:href="#DejaVuSans-50"/>
      <use xlink:href="#DejaVuSans-72" x="58.552734"/>
      <use xlink:href="#DejaVuSans-6f" x="97.416016"/>
      <use xlink:href="#DejaVuSans-78" x="155.472656"/>
      <use xlink:href="#DejaVuSans-44" x="214.652344"/>
      <use xlink:href="#DejaVuSans-44" x="291.654297"/>
      <use xlink:href="#DejaVuSans-50" x="368.65625"/>
      <use xlink:href="#DejaVuSans-3a" x="428.958984"/>
      <use xlink:href="#DejaVuSans-33" x="462.650391"/>
     </g>
    </g>
   </g>
  </g>
 </g>
 <defs>
  <clipPath id="p687219d5c2">
   <rect x="46.7" y="10.8" width="446.5" height="233.86"/>
  </clipPath>
 </defs>
</svg>
